<svg width="287" height="185" viewBox="0 0 287 185" fill="none" xmlns="http://www.w3.org/2000/svg">
<path fill-rule="evenodd" clip-rule="evenodd" d="M33.25 10.6875H255.646V136.084C255.646 138.782 253.459 140.97 250.76 140.97H38.1356C35.4374 140.97 33.25 138.782 33.25 136.084V10.6875Z" fill="url(#paint0_linear)"/>
<mask id="mask0" mask-type="alpha" maskUnits="userSpaceOnUse" x="33" y="10" width="223" height="131">
<path d="M33.25 10.6875H255.646V136.084C255.646 138.782 253.459 140.97 250.76 140.97H38.1356C35.4374 140.97 33.25 138.782 33.25 136.084V10.6875Z" fill="white"/>
</mask>
<g mask="url(#mask0)">
<path d="M33.25 10.6875H255.646V136.084C255.646 138.782 253.459 140.97 250.76 140.97H38.1356C35.4374 140.97 33.25 138.782 33.25 136.084V10.6875Z" fill="url(#paint1_linear)"/>
<g filter="url(#filter0_d)">
<path d="M103.99 64.124H50.0452C49.483 64.124 49.0273 64.5797 49.0273 65.1419V117.56C49.0273 118.122 49.483 118.578 50.0452 118.578H103.99C104.552 118.578 105.008 118.122 105.008 117.56V65.1419C105.008 64.5797 104.552 64.124 103.99 64.124Z" fill="black"/>
</g>
<path d="M103.99 64.124H50.0452C49.483 64.124 49.0273 64.5797 49.0273 65.1419V117.56C49.0273 118.122 49.483 118.578 50.0452 118.578H103.99C104.552 118.578 105.008 118.122 105.008 117.56V65.1419C105.008 64.5797 104.552 64.124 103.99 64.124Z" fill="white"/>
<mask id="mask1" mask-type="alpha" maskUnits="userSpaceOnUse" x="49" y="64" width="57" height="55">
<path d="M103.99 64.124H50.0452C49.483 64.124 49.0273 64.5797 49.0273 65.1419V117.56C49.0273 118.122 49.483 118.578 50.0452 118.578H103.99C104.552 118.578 105.008 118.122 105.008 117.56V65.1419C105.008 64.5797 104.552 64.124 103.99 64.124Z" fill="white"/>
</mask>
<g mask="url(#mask1)">
<path d="M103.99 64.124H50.0452C49.483 64.124 49.0273 64.5797 49.0273 65.1419V117.56C49.0273 118.122 49.483 118.578 50.0452 118.578H103.99C104.552 118.578 105.008 118.122 105.008 117.56V65.1419C105.008 64.5797 104.552 64.124 103.99 64.124Z" fill="white"/>
</g>
<mask id="mask2" mask-type="alpha" maskUnits="userSpaceOnUse" x="49" y="64" width="57" height="25">
<path d="M50.0452 64.124H103.99C104.552 64.124 105.008 64.5797 105.008 65.1419V88.552H49.0273V65.1419C49.0273 64.5797 49.483 64.124 50.0452 64.124Z" fill="white"/>
</mask>
<g mask="url(#mask2)">
<path d="M50.0452 64.124H103.99C104.552 64.124 105.008 64.5797 105.008 65.1419V88.552H49.0273V65.1419C49.0273 64.5797 49.483 64.124 50.0452 64.124Z" fill="#CACACA"/>
</g>
<mask id="mask3" mask-type="alpha" maskUnits="userSpaceOnUse" x="53" y="95" width="48" height="3">
<path d="M99.9198 95.168H54.1174C53.5553 95.168 53.0996 95.6237 53.0996 96.1858C53.0996 96.7479 53.5553 97.2036 54.1174 97.2036H99.9198C100.482 97.2036 100.938 96.7479 100.938 96.1858C100.938 95.6237 100.482 95.168 99.9198 95.168Z" fill="white"/>
</mask>
<g mask="url(#mask3)">
<path d="M99.9198 95.168H54.1174C53.5553 95.168 53.0996 95.6237 53.0996 96.1858C53.0996 96.7479 53.5553 97.2036 54.1174 97.2036H99.9198C100.482 97.2036 100.938 96.7479 100.938 96.1858C100.938 95.6237 100.482 95.168 99.9198 95.168Z" fill="#EAEAEA"/>
</g>
<mask id="mask4" mask-type="alpha" maskUnits="userSpaceOnUse" x="53" y="99" width="25" height="3">
<path d="M76.0008 99.2383H54.1174C53.5553 99.2383 53.0996 99.694 53.0996 100.256C53.0996 100.818 53.5553 101.274 54.1174 101.274H76.0008C76.5629 101.274 77.0186 100.818 77.0186 100.256C77.0186 99.694 76.5629 99.2383 76.0008 99.2383Z" fill="white"/>
</mask>
<g mask="url(#mask4)">
<path d="M76.0008 99.2383H54.1174C53.5553 99.2383 53.0996 99.694 53.0996 100.256C53.0996 100.818 53.5553 101.274 54.1174 101.274H76.0008C76.5629 101.274 77.0186 100.818 77.0186 100.256C77.0186 99.694 76.5629 99.2383 76.0008 99.2383Z" fill="#EAEAEA"/>
</g>
<mask id="mask5" mask-type="alpha" maskUnits="userSpaceOnUse" x="53" y="103" width="48" height="3">
<path d="M99.9198 103.31H54.1174C53.5553 103.31 53.0996 103.765 53.0996 104.327C53.0996 104.89 53.5553 105.345 54.1174 105.345H99.9198C100.482 105.345 100.938 104.89 100.938 104.327C100.938 103.765 100.482 103.31 99.9198 103.31Z" fill="white"/>
</mask>
<g mask="url(#mask5)">
<path d="M99.9198 103.31H54.1174C53.5553 103.31 53.0996 103.765 53.0996 104.327C53.0996 104.89 53.5553 105.345 54.1174 105.345H99.9198C100.482 105.345 100.938 104.89 100.938 104.327C100.938 103.765 100.482 103.31 99.9198 103.31Z" fill="#EAEAEA"/>
</g>
<mask id="mask6" mask-type="alpha" maskUnits="userSpaceOnUse" x="53" y="107" width="25" height="3">
<path d="M76.0008 107.381H54.1174C53.5553 107.381 53.0996 107.837 53.0996 108.399C53.0996 108.961 53.5553 109.417 54.1174 109.417H76.0008C76.5629 109.417 77.0186 108.961 77.0186 108.399C77.0186 107.837 76.5629 107.381 76.0008 107.381Z" fill="white"/>
</mask>
<g mask="url(#mask6)">
<path d="M76.0008 107.381H54.1174C53.5553 107.381 53.0996 107.837 53.0996 108.399C53.0996 108.961 53.5553 109.417 54.1174 109.417H76.0008C76.5629 109.417 77.0186 108.961 77.0186 108.399C77.0186 107.837 76.5629 107.381 76.0008 107.381Z" fill="#EAEAEA"/>
</g>
<g filter="url(#filter1_d)">
<path d="M171.168 64.124H117.223C116.661 64.124 116.205 64.5797 116.205 65.1419V117.56C116.205 118.122 116.661 118.578 117.223 118.578H171.168C171.73 118.578 172.186 118.122 172.186 117.56V65.1419C172.186 64.5797 171.73 64.124 171.168 64.124Z" fill="black"/>
</g>
<path d="M171.168 64.124H117.223C116.661 64.124 116.205 64.5797 116.205 65.1419V117.56C116.205 118.122 116.661 118.578 117.223 118.578H171.168C171.73 118.578 172.186 118.122 172.186 117.56V65.1419C172.186 64.5797 171.73 64.124 171.168 64.124Z" fill="white"/>
<mask id="mask7" mask-type="alpha" maskUnits="userSpaceOnUse" x="116" y="64" width="57" height="55">
<path d="M171.168 64.124H117.223C116.661 64.124 116.205 64.5797 116.205 65.1419V117.56C116.205 118.122 116.661 118.578 117.223 118.578H171.168C171.73 118.578 172.186 118.122 172.186 117.56V65.1419C172.186 64.5797 171.73 64.124 171.168 64.124Z" fill="white"/>
</mask>
<g mask="url(#mask7)">
<path d="M171.168 64.124H117.223C116.661 64.124 116.205 64.5797 116.205 65.1419V117.56C116.205 118.122 116.661 118.578 117.223 118.578H171.168C171.73 118.578 172.186 118.122 172.186 117.56V65.1419C172.186 64.5797 171.73 64.124 171.168 64.124Z" fill="white"/>
</g>
<mask id="mask8" mask-type="alpha" maskUnits="userSpaceOnUse" x="116" y="64" width="57" height="25">
<path d="M117.223 64.124H171.168C171.73 64.124 172.186 64.5797 172.186 65.1419V88.552H116.205V65.1419C116.205 64.5797 116.661 64.124 117.223 64.124Z" fill="white"/>
</mask>
<g mask="url(#mask8)">
<path d="M117.223 64.124H171.168C171.73 64.124 172.186 64.5797 172.186 65.1419V88.552H116.205V65.1419C116.205 64.5797 116.661 64.124 117.223 64.124Z" fill="#CACACA"/>
</g>
<mask id="mask9" mask-type="alpha" maskUnits="userSpaceOnUse" x="120" y="95" width="49" height="3">
<path d="M167.096 95.168H121.293C120.731 95.168 120.275 95.6237 120.275 96.1858C120.275 96.7479 120.731 97.2036 121.293 97.2036H167.096C167.658 97.2036 168.113 96.7479 168.113 96.1858C168.113 95.6237 167.658 95.168 167.096 95.168Z" fill="white"/>
</mask>
<g mask="url(#mask9)">
<path d="M167.096 95.168H121.293C120.731 95.168 120.275 95.6237 120.275 96.1858C120.275 96.7479 120.731 97.2036 121.293 97.2036H167.096C167.658 97.2036 168.113 96.7479 168.113 96.1858C168.113 95.6237 167.658 95.168 167.096 95.168Z" fill="#EAEAEA"/>
</g>
<mask id="mask10" mask-type="alpha" maskUnits="userSpaceOnUse" x="120" y="99" width="25" height="3">
<path d="M143.177 99.2383H121.293C120.731 99.2383 120.275 99.694 120.275 100.256C120.275 100.818 120.731 101.274 121.293 101.274H143.177C143.739 101.274 144.194 100.818 144.194 100.256C144.194 99.694 143.739 99.2383 143.177 99.2383Z" fill="white"/>
</mask>
<g mask="url(#mask10)">
<path d="M143.177 99.2383H121.293C120.731 99.2383 120.275 99.694 120.275 100.256C120.275 100.818 120.731 101.274 121.293 101.274H143.177C143.739 101.274 144.194 100.818 144.194 100.256C144.194 99.694 143.739 99.2383 143.177 99.2383Z" fill="#EAEAEA"/>
</g>
<mask id="mask11" mask-type="alpha" maskUnits="userSpaceOnUse" x="120" y="103" width="49" height="3">
<path d="M167.096 103.31H121.293C120.731 103.31 120.275 103.765 120.275 104.327C120.275 104.89 120.731 105.345 121.293 105.345H167.096C167.658 105.345 168.113 104.89 168.113 104.327C168.113 103.765 167.658 103.31 167.096 103.31Z" fill="white"/>
</mask>
<g mask="url(#mask11)">
<path d="M167.096 103.31H121.293C120.731 103.31 120.275 103.765 120.275 104.327C120.275 104.89 120.731 105.345 121.293 105.345H167.096C167.658 105.345 168.113 104.89 168.113 104.327C168.113 103.765 167.658 103.31 167.096 103.31Z" fill="#EAEAEA"/>
</g>
<mask id="mask12" mask-type="alpha" maskUnits="userSpaceOnUse" x="120" y="107" width="25" height="3">
<path d="M143.177 107.381H121.293C120.731 107.381 120.275 107.837 120.275 108.399C120.275 108.961 120.731 109.417 121.293 109.417H143.177C143.739 109.417 144.194 108.961 144.194 108.399C144.194 107.837 143.739 107.381 143.177 107.381Z" fill="white"/>
</mask>
<g mask="url(#mask12)">
<path d="M143.177 107.381H121.293C120.731 107.381 120.275 107.837 120.275 108.399C120.275 108.961 120.731 109.417 121.293 109.417H143.177C143.739 109.417 144.194 108.961 144.194 108.399C144.194 107.837 143.739 107.381 143.177 107.381Z" fill="#EAEAEA"/>
</g>
<g filter="url(#filter2_d)">
<path d="M238.344 64.124H184.399C183.837 64.124 183.381 64.5797 183.381 65.1419V117.56C183.381 118.122 183.837 118.578 184.399 118.578H238.344C238.906 118.578 239.362 118.122 239.362 117.56V65.1419C239.362 64.5797 238.906 64.124 238.344 64.124Z" fill="black"/>
</g>
<path d="M238.344 64.124H184.399C183.837 64.124 183.381 64.5797 183.381 65.1419V117.56C183.381 118.122 183.837 118.578 184.399 118.578H238.344C238.906 118.578 239.362 118.122 239.362 117.56V65.1419C239.362 64.5797 238.906 64.124 238.344 64.124Z" fill="white"/>
<mask id="mask13" mask-type="alpha" maskUnits="userSpaceOnUse" x="183" y="64" width="57" height="55">
<path d="M238.344 64.124H184.399C183.837 64.124 183.381 64.5797 183.381 65.1419V117.56C183.381 118.122 183.837 118.578 184.399 118.578H238.344C238.906 118.578 239.362 118.122 239.362 117.56V65.1419C239.362 64.5797 238.906 64.124 238.344 64.124Z" fill="white"/>
</mask>
<g mask="url(#mask13)">
<path d="M238.344 64.124H184.399C183.837 64.124 183.381 64.5797 183.381 65.1419V117.56C183.381 118.122 183.837 118.578 184.399 118.578H238.344C238.906 118.578 239.362 118.122 239.362 117.56V65.1419C239.362 64.5797 238.906 64.124 238.344 64.124Z" fill="white"/>
</g>
<mask id="mask14" mask-type="alpha" maskUnits="userSpaceOnUse" x="183" y="64" width="57" height="25">
<path d="M184.399 64.124H238.344C238.906 64.124 239.362 64.5797 239.362 65.1419V88.552H183.381V65.1419C183.381 64.5797 183.837 64.124 184.399 64.124Z" fill="white"/>
</mask>
<g mask="url(#mask14)">
<path d="M184.399 64.124H238.344C238.906 64.124 239.362 64.5797 239.362 65.1419V88.552H183.381V65.1419C183.381 64.5797 183.837 64.124 184.399 64.124Z" fill="#CACACA"/>
</g>
<mask id="mask15" mask-type="alpha" maskUnits="userSpaceOnUse" x="187" y="95" width="49" height="3">
<path d="M234.273 95.168H188.471C187.909 95.168 187.453 95.6237 187.453 96.1858C187.453 96.7479 187.909 97.2036 188.471 97.2036H234.273C234.835 97.2036 235.291 96.7479 235.291 96.1858C235.291 95.6237 234.835 95.168 234.273 95.168Z" fill="white"/>
</mask>
<g mask="url(#mask15)">
<path d="M234.273 95.168H188.471C187.909 95.168 187.453 95.6237 187.453 96.1858C187.453 96.7479 187.909 97.2036 188.471 97.2036H234.273C234.835 97.2036 235.291 96.7479 235.291 96.1858C235.291 95.6237 234.835 95.168 234.273 95.168Z" fill="#EAEAEA"/>
</g>
<mask id="mask16" mask-type="alpha" maskUnits="userSpaceOnUse" x="187" y="99" width="25" height="3">
<path d="M210.354 99.2383H188.471C187.909 99.2383 187.453 99.694 187.453 100.256C187.453 100.818 187.909 101.274 188.471 101.274H210.354C210.916 101.274 211.372 100.818 211.372 100.256C211.372 99.694 210.916 99.2383 210.354 99.2383Z" fill="white"/>
</mask>
<g mask="url(#mask16)">
<path d="M210.354 99.2383H188.471C187.909 99.2383 187.453 99.694 187.453 100.256C187.453 100.818 187.909 101.274 188.471 101.274H210.354C210.916 101.274 211.372 100.818 211.372 100.256C211.372 99.694 210.916 99.2383 210.354 99.2383Z" fill="#EAEAEA"/>
</g>
<mask id="mask17" mask-type="alpha" maskUnits="userSpaceOnUse" x="187" y="103" width="49" height="3">
<path d="M234.273 103.31H188.471C187.909 103.31 187.453 103.765 187.453 104.327C187.453 104.89 187.909 105.345 188.471 105.345H234.273C234.835 105.345 235.291 104.89 235.291 104.327C235.291 103.765 234.835 103.31 234.273 103.31Z" fill="white"/>
</mask>
<g mask="url(#mask17)">
<path d="M234.273 103.31H188.471C187.909 103.31 187.453 103.765 187.453 104.327C187.453 104.89 187.909 105.345 188.471 105.345H234.273C234.835 105.345 235.291 104.89 235.291 104.327C235.291 103.765 234.835 103.31 234.273 103.31Z" fill="#EAEAEA"/>
</g>
<mask id="mask18" mask-type="alpha" maskUnits="userSpaceOnUse" x="187" y="107" width="25" height="3">
<path d="M210.354 107.381H188.471C187.909 107.381 187.453 107.837 187.453 108.399C187.453 108.961 187.909 109.417 188.471 109.417H210.354C210.916 109.417 211.372 108.961 211.372 108.399C211.372 107.837 210.916 107.381 210.354 107.381Z" fill="white"/>
</mask>
<g mask="url(#mask18)">
<path d="M210.354 107.381H188.471C187.909 107.381 187.453 107.837 187.453 108.399C187.453 108.961 187.909 109.417 188.471 109.417H210.354C210.916 109.417 211.372 108.961 211.372 108.399C211.372 107.837 210.916 107.381 210.354 107.381Z" fill="#EAEAEA"/>
</g>
<g filter="url(#filter3_d)">
<path d="M103.99 126.72H50.0452C49.483 126.72 49.0273 127.175 49.0273 127.738V180.156C49.0273 180.718 49.483 181.174 50.0452 181.174H103.99C104.552 181.174 105.008 180.718 105.008 180.156V127.738C105.008 127.175 104.552 126.72 103.99 126.72Z" fill="black"/>
</g>
<path d="M103.99 126.72H50.0452C49.483 126.72 49.0273 127.175 49.0273 127.738V180.156C49.0273 180.718 49.483 181.174 50.0452 181.174H103.99C104.552 181.174 105.008 180.718 105.008 180.156V127.738C105.008 127.175 104.552 126.72 103.99 126.72Z" fill="white"/>
<mask id="mask19" mask-type="alpha" maskUnits="userSpaceOnUse" x="49" y="126" width="57" height="56">
<path d="M103.99 126.72H50.0452C49.483 126.72 49.0273 127.175 49.0273 127.738V180.156C49.0273 180.718 49.483 181.174 50.0452 181.174H103.99C104.552 181.174 105.008 180.718 105.008 180.156V127.738C105.008 127.175 104.552 126.72 103.99 126.72Z" fill="white"/>
</mask>
<g mask="url(#mask19)">
<path d="M103.99 126.72H50.0452C49.483 126.72 49.0273 127.175 49.0273 127.738V180.156C49.0273 180.718 49.483 181.174 50.0452 181.174H103.99C104.552 181.174 105.008 180.718 105.008 180.156V127.738C105.008 127.175 104.552 126.72 103.99 126.72Z" fill="white"/>
</g>
<mask id="mask20" mask-type="alpha" maskUnits="userSpaceOnUse" x="49" y="126" width="57" height="26">
<path d="M50.0452 126.72H103.99C104.552 126.72 105.008 127.175 105.008 127.738V151.148H49.0273V127.738C49.0273 127.175 49.483 126.72 50.0452 126.72Z" fill="white"/>
</mask>
<g mask="url(#mask20)">
<path d="M50.0452 126.72H103.99C104.552 126.72 105.008 127.175 105.008 127.738V151.148H49.0273V127.738C49.0273 127.175 49.483 126.72 50.0452 126.72Z" fill="#CACACA"/>
</g>
<g filter="url(#filter4_d)">
<path d="M171.168 126.72H117.223C116.661 126.72 116.205 127.175 116.205 127.738V180.156C116.205 180.718 116.661 181.174 117.223 181.174H171.168C171.73 181.174 172.186 180.718 172.186 180.156V127.738C172.186 127.175 171.73 126.72 171.168 126.72Z" fill="black"/>
</g>
<path d="M171.168 126.72H117.223C116.661 126.72 116.205 127.175 116.205 127.738V180.156C116.205 180.718 116.661 181.174 117.223 181.174H171.168C171.73 181.174 172.186 180.718 172.186 180.156V127.738C172.186 127.175 171.73 126.72 171.168 126.72Z" fill="white"/>
<mask id="mask21" mask-type="alpha" maskUnits="userSpaceOnUse" x="116" y="126" width="57" height="56">
<path d="M171.168 126.72H117.223C116.661 126.72 116.205 127.175 116.205 127.738V180.156C116.205 180.718 116.661 181.174 117.223 181.174H171.168C171.73 181.174 172.186 180.718 172.186 180.156V127.738C172.186 127.175 171.73 126.72 171.168 126.72Z" fill="white"/>
</mask>
<g mask="url(#mask21)">
<path d="M171.168 126.72H117.223C116.661 126.72 116.205 127.175 116.205 127.738V180.156C116.205 180.718 116.661 181.174 117.223 181.174H171.168C171.73 181.174 172.186 180.718 172.186 180.156V127.738C172.186 127.175 171.73 126.72 171.168 126.72Z" fill="white"/>
</g>
<mask id="mask22" mask-type="alpha" maskUnits="userSpaceOnUse" x="116" y="126" width="57" height="26">
<path d="M117.223 126.72H171.168C171.73 126.72 172.186 127.175 172.186 127.738V151.148H116.205V127.738C116.205 127.175 116.661 126.72 117.223 126.72Z" fill="white"/>
</mask>
<g mask="url(#mask22)">
<path d="M117.223 126.72H171.168C171.73 126.72 172.186 127.175 172.186 127.738V151.148H116.205V127.738C116.205 127.175 116.661 126.72 117.223 126.72Z" fill="#CACACA"/>
</g>
<g filter="url(#filter5_d)">
<path d="M238.344 126.72H184.399C183.837 126.72 183.381 127.175 183.381 127.738V180.156C183.381 180.718 183.837 181.174 184.399 181.174H238.344C238.906 181.174 239.362 180.718 239.362 180.156V127.738C239.362 127.175 238.906 126.72 238.344 126.72Z" fill="black"/>
</g>
<path d="M238.344 126.72H184.399C183.837 126.72 183.381 127.175 183.381 127.738V180.156C183.381 180.718 183.837 181.174 184.399 181.174H238.344C238.906 181.174 239.362 180.718 239.362 180.156V127.738C239.362 127.175 238.906 126.72 238.344 126.72Z" fill="white"/>
<mask id="mask23" mask-type="alpha" maskUnits="userSpaceOnUse" x="183" y="126" width="57" height="56">
<path d="M238.344 126.72H184.399C183.837 126.72 183.381 127.175 183.381 127.738V180.156C183.381 180.718 183.837 181.174 184.399 181.174H238.344C238.906 181.174 239.362 180.718 239.362 180.156V127.738C239.362 127.175 238.906 126.72 238.344 126.72Z" fill="white"/>
</mask>
<g mask="url(#mask23)">
<path d="M238.344 126.72H184.399C183.837 126.72 183.381 127.175 183.381 127.738V180.156C183.381 180.718 183.837 181.174 184.399 181.174H238.344C238.906 181.174 239.362 180.718 239.362 180.156V127.738C239.362 127.175 238.906 126.72 238.344 126.72Z" fill="white"/>
</g>
<mask id="mask24" mask-type="alpha" maskUnits="userSpaceOnUse" x="183" y="126" width="57" height="26">
<path d="M184.399 126.72H238.344C238.906 126.72 239.362 127.175 239.362 127.738V151.148H183.381V127.738C183.381 127.175 183.837 126.72 184.399 126.72Z" fill="white"/>
</mask>
<g mask="url(#mask24)">
<path d="M184.399 126.72H238.344C238.906 126.72 239.362 127.175 239.362 127.738V151.148H183.381V127.738C183.381 127.175 183.837 126.72 184.399 126.72Z" fill="#CACACA"/>
</g>
</g>
<path d="M255.646 10.6875H33.25V22.9015H255.646V10.6875Z" fill="#0E1630"/>
<path d="M255.646 22.9004H33.25V59.5423H255.646V22.9004Z" fill="#546294"/>
<path d="M110.464 42.2887C110.742 42.2887 110.963 42.0536 110.963 41.7828V40.2581H112.872C113.115 40.2581 113.314 40.0658 113.314 39.8235C113.314 39.5884 113.115 39.3889 112.872 39.3889H110.963V38.3558H112.922C113.164 38.3558 113.364 38.1634 113.364 37.9283C113.364 37.6789 113.164 37.4866 112.922 37.4866H110.486C110.144 37.4866 109.951 37.6789 109.951 38.0209V41.7828C109.951 42.0536 110.179 42.2887 110.464 42.2887ZM115.55 42.2887C115.828 42.2887 116.049 42.0536 116.049 41.7828V37.9426C116.049 37.6647 115.828 37.4367 115.55 37.4367C115.265 37.4367 115.037 37.6647 115.037 37.9426V41.7828C115.037 42.0536 115.265 42.2887 115.55 42.2887ZM121.641 42.2887C121.983 42.2887 122.261 42.0108 122.261 41.6688V37.9426C122.261 37.6647 122.033 37.4367 121.755 37.4367C121.47 37.4367 121.249 37.6647 121.249 37.9426V40.5645L119.211 37.7146C119.09 37.5436 118.891 37.4367 118.67 37.4367C118.299 37.4367 118.007 37.7359 118.007 38.0993V41.7828C118.007 42.0536 118.235 42.2887 118.52 42.2887C118.798 42.2887 119.019 42.0536 119.019 41.7828V39.0469L121.135 42.0251C121.249 42.189 121.434 42.2887 121.641 42.2887ZM126.093 42.2388C127.582 42.2388 128.615 41.2983 128.615 39.8663C128.615 38.4342 127.582 37.4866 126.093 37.4866H124.753C124.411 37.4866 124.219 37.6789 124.219 38.0209V41.6973C124.219 42.0465 124.411 42.2388 124.753 42.2388H126.093ZM126.093 41.3482H125.231V38.3772H126.093C127.069 38.3772 127.582 39.0255 127.582 39.8663C127.582 40.6714 127.033 41.3482 126.093 41.3482ZM136.878 42.2887C137.163 42.2887 137.398 42.0607 137.398 41.7757C137.398 41.7116 137.377 41.6475 137.355 41.5976L135.973 38.0067C135.845 37.6718 135.517 37.4367 135.139 37.4367C134.755 37.4367 134.434 37.6718 134.306 38.0067L132.916 41.5976C132.895 41.6475 132.881 41.7116 132.881 41.7757C132.881 42.0607 133.109 42.2887 133.394 42.2887C133.615 42.2887 133.814 42.1462 133.878 41.9467L134.071 41.391H136.208L136.401 41.9467C136.465 42.1462 136.657 42.2887 136.878 42.2887ZM135.895 40.5146H134.384L135.139 38.3629L135.895 40.5146ZM142.398 42.2887C142.675 42.2887 142.896 42.0536 142.896 41.7828V40.536H144.108C145.134 40.536 145.703 39.8449 145.703 39.0184C145.703 38.1848 145.141 37.4866 144.108 37.4866H142.419C142.077 37.4866 141.885 37.6789 141.885 38.0209V41.7828C141.885 42.0536 142.113 42.2887 142.398 42.2887ZM143.972 39.6668H142.896V38.3558H143.972C144.371 38.3558 144.67 38.6194 144.67 39.0113C144.67 39.4103 144.371 39.6668 143.972 39.6668ZM150.683 42.2887C150.953 42.2887 151.167 42.0536 151.167 41.8113C151.167 41.6688 151.132 41.5762 151.067 41.4907L150.262 40.3935C150.733 40.2225 151.167 39.7808 151.167 39.0184C151.167 38.1349 150.562 37.4866 149.571 37.4866H147.883C147.541 37.4866 147.348 37.6789 147.348 38.0209V41.7828C147.348 42.0536 147.576 42.2887 147.861 42.2887C148.139 42.2887 148.36 42.0536 148.36 41.7828V40.536H149.194L150.262 42.075C150.348 42.1961 150.505 42.2887 150.683 42.2887ZM149.422 39.6668H148.36V38.3558H149.422C149.828 38.3558 150.134 38.6123 150.134 39.0113C150.134 39.4103 149.828 39.6668 149.422 39.6668ZM155.199 42.3243C156.638 42.3243 157.685 41.2983 157.685 39.8663C157.685 38.4342 156.638 37.4082 155.199 37.4082C153.767 37.4082 152.719 38.4342 152.719 39.8663C152.719 41.2983 153.767 42.3243 155.199 42.3243ZM155.199 41.4266C154.322 41.4266 153.76 40.7497 153.76 39.8663C153.76 38.9757 154.322 38.3059 155.199 38.3059C156.075 38.3059 156.645 38.9757 156.645 39.8663C156.645 40.7497 156.075 41.4266 155.199 41.4266ZM160.121 42.3243C161.097 42.3243 161.795 41.8042 161.795 40.6785V37.9426C161.795 37.6647 161.567 37.4367 161.29 37.4367C161.005 37.4367 160.784 37.6647 160.784 37.9426V40.6642C160.784 41.1274 160.492 41.4266 160.043 41.4266C159.857 41.4266 159.715 41.3767 159.58 41.2912C159.523 41.2627 159.458 41.2485 159.387 41.2485C159.138 41.2485 158.938 41.448 158.938 41.6973C158.938 41.8755 159.045 42.018 159.195 42.0892C159.48 42.2531 159.786 42.3243 160.121 42.3243ZM166.725 42.2388C166.967 42.2388 167.166 42.0393 167.166 41.7971C167.166 41.562 166.967 41.3625 166.725 41.3625H164.765V40.2581H166.675C166.917 40.2581 167.117 40.0658 167.117 39.8235C167.117 39.5884 166.917 39.3889 166.675 39.3889H164.765V38.3558H166.725C166.967 38.3558 167.166 38.1634 167.166 37.9283C167.166 37.6789 166.967 37.4866 166.725 37.4866H164.288C163.946 37.4866 163.754 37.6789 163.754 38.0209V41.6973C163.754 42.0465 163.946 42.2388 164.288 42.2388H166.725ZM171.191 42.3243C171.975 42.3243 172.509 42.0251 172.887 41.6118C172.965 41.5335 173.008 41.4195 173.008 41.2984C173.008 41.0347 172.794 40.821 172.53 40.821C172.388 40.821 172.26 40.8851 172.174 40.9777C171.932 41.2556 171.59 41.4266 171.191 41.4266C170.365 41.4266 169.738 40.764 169.738 39.8663C169.738 38.9685 170.365 38.3059 171.191 38.3059C171.59 38.3059 171.932 38.484 172.167 38.7477C172.26 38.8545 172.388 38.9115 172.53 38.9115C172.794 38.9115 173.008 38.6978 173.008 38.4342C173.008 38.3131 172.965 38.1919 172.887 38.1136C172.509 37.7003 171.975 37.4082 171.191 37.4082C169.802 37.4082 168.697 38.4057 168.697 39.8663C168.697 41.3268 169.802 42.3243 171.191 42.3243ZM176.334 42.2887C176.612 42.2887 176.84 42.0536 176.84 41.7828V38.3772H177.83C178.073 38.3772 178.279 38.1777 178.279 37.9354C178.279 37.6861 178.073 37.4866 177.83 37.4866H174.831C174.589 37.4866 174.382 37.6861 174.382 37.9354C174.382 38.1777 174.589 38.3772 174.831 38.3772H175.821V41.7828C175.821 42.0536 176.049 42.2887 176.334 42.2887Z" fill="#AECDE9"/>
<path fill-rule="evenodd" clip-rule="evenodd" d="M38.1356 0H250.76C253.459 0 255.646 2.18735 255.646 4.88559V11.1961H33.25V4.88559C33.25 2.18735 35.4374 0 38.1356 0Z" fill="#CACACA"/>
<path d="M42.1543 7.12491C43.138 7.12491 43.9355 6.32744 43.9355 5.3437C43.9355 4.35997 43.138 3.5625 42.1543 3.5625C41.1705 3.5625 40.373 4.35997 40.373 5.3437C40.373 6.32744 41.1705 7.12491 42.1543 7.12491Z" fill="#F88D8C"/>
<path d="M48.2636 7.12491C49.2474 7.12491 50.0448 6.32744 50.0448 5.3437C50.0448 4.35997 49.2474 3.5625 48.2636 3.5625C47.2799 3.5625 46.4824 4.35997 46.4824 5.3437C46.4824 6.32744 47.2799 7.12491 48.2636 7.12491Z" fill="#F6D50F"/>
<path d="M54.371 7.12491C55.3548 7.12491 56.1523 6.32744 56.1523 5.3437C56.1523 4.35997 55.3548 3.5625 54.371 3.5625C53.3873 3.5625 52.5898 4.35997 52.5898 5.3437C52.5898 6.32744 53.3873 7.12491 54.371 7.12491Z" fill="#70CF48"/>
<path d="M212.059 77.5458H211.404C211.211 77.5458 211.041 77.4365 210.96 77.2602C210.878 77.0844 210.905 76.8828 211.03 76.7343L212.7 74.7469H212.083C211.888 74.7469 211.713 74.6299 211.637 74.4493C211.561 74.2715 211.597 74.0646 211.727 73.9227L214.085 71.3538C214.214 71.2128 214.454 71.2128 214.584 71.3538L216.942 73.9227C217.072 74.0646 217.107 74.2715 217.032 74.4493C216.956 74.6299 216.781 74.7469 216.586 74.7469H215.968L217.639 76.7348C217.763 76.883 217.79 77.0844 217.709 77.2605C217.628 77.4365 217.457 77.5458 217.265 77.5458H216.61L218.318 79.5245C218.446 79.673 218.475 79.8764 218.394 80.055C218.314 80.2311 218.137 80.3448 217.945 80.3448H215.018V80.8794L215.666 81.9378C215.78 82.1704 215.614 82.4442 215.36 82.4442H213.308C213.054 82.4442 212.889 82.1704 213.002 81.9378L213.65 80.8794V80.3448H210.724C210.531 80.3448 210.354 80.2311 210.274 80.055C210.193 79.8764 210.222 79.673 210.35 79.5245L212.059 77.5458ZM204.877 79.5245L206.585 77.5458H205.93C205.738 77.5458 205.567 77.4365 205.486 77.2602C205.405 77.0844 205.431 76.8828 205.556 76.7343L207.227 74.7469H206.609C206.414 74.7469 206.239 74.6299 206.163 74.4493C206.088 74.2715 206.123 74.0646 206.253 73.9227L208.611 71.3538C208.74 71.2128 208.981 71.2128 209.11 71.3538L211.142 73.568C210.905 73.9041 210.844 74.3399 211.007 74.7261C211.092 74.9288 211.229 75.0985 211.397 75.222L210.509 76.2786C210.211 76.634 210.145 77.1365 210.339 77.5583C210.429 77.7527 210.563 77.9134 210.727 78.0302L209.837 79.0612C209.652 79.2755 209.551 79.3706 209.545 79.6448V80.8792L210.192 81.9375C210.306 82.1702 210.141 82.444 209.886 82.444H207.835C207.58 82.444 207.415 82.1702 207.529 81.9375L208.176 80.8794V80.3448H205.25C205.057 80.3448 204.881 80.2311 204.801 80.055C204.72 79.8764 204.749 79.673 204.877 79.5245Z" fill="white"/>
<path d="M72.8635 74.5964C73.0954 74.3728 73.4713 74.3728 73.7032 74.5964L75.3105 76.1463H77.1936L78.8009 74.5964C79.0327 74.3728 79.4087 74.3728 79.6405 74.5964C79.8724 74.82 79.8724 75.1825 79.6405 75.4061L77.8848 77.0991V81.8716C77.8848 82.1878 77.619 82.4441 77.2911 82.4441H76.9942C76.6663 82.4441 76.4005 82.1878 76.4005 81.8716V79.8677H76.1036V81.8716C76.1036 82.1878 75.8378 82.4441 75.5099 82.4441H75.213C74.8851 82.4441 74.6193 82.1878 74.6193 81.8716V77.0991L72.8635 75.4061C72.6317 75.1825 72.6317 74.82 72.8635 74.5964Z" fill="white"/>
<path d="M70.8651 79.5058V81.9463C70.8651 82.4339 71.2656 82.8258 71.7557 82.8258H73.1128C73.6028 82.8258 74.0034 82.4339 74.0034 81.9463V79.5058C74.4739 79.484 74.8516 79.1008 74.8516 78.6273V75.8061C74.8516 75.0435 74.2231 74.4287 73.452 74.4287H73.1293L73.0546 74.4623C72.6599 74.6399 72.2041 74.6378 71.8139 74.4623L71.7392 74.4287H71.4164C70.6453 74.4287 70.0169 75.0435 70.0169 75.8061V78.6273C70.0169 79.1008 70.3946 79.484 70.8651 79.5058Z" fill="white" stroke="#EAEAEA" stroke-width="1.5"/>
<path d="M72.4342 71.248C71.591 71.248 70.9074 71.9316 70.9074 72.7748C70.9074 73.618 71.591 74.3015 72.4342 74.3015C73.2774 74.3015 73.9609 73.618 73.9609 72.7748C73.9609 71.9316 73.2774 71.248 72.4342 71.248Z" fill="white"/>
<path d="M77.1772 79.0584L77.1772 79.0584C76.9976 79.6439 77.5024 80.1706 78.1345 80.1706H79.1777V81.9463C79.1777 82.4512 79.6372 82.8258 80.17 82.8258H80.9842C81.517 82.8258 81.9765 82.4512 81.9765 81.9463V80.1706H83.0197C83.6521 80.1706 84.1564 79.6436 83.977 79.0584L82.7557 75.0756C82.6351 74.6824 82.2366 74.4287 81.7984 74.4287H81.4401L81.3753 74.453C80.8685 74.643 80.28 74.6409 79.7788 74.453L79.714 74.4287H79.3558C78.9175 74.4287 78.5191 74.6824 78.3985 75.0756L77.1772 79.0584Z" fill="white" stroke="#EAEAEA" stroke-width="1.5"/>
<path d="M80.5787 71.248C79.7355 71.248 79.052 71.9316 79.052 72.7748C79.052 73.618 79.7355 74.3015 80.5787 74.3015C81.4219 74.3015 82.1055 73.618 82.1055 72.7748C82.1055 71.9316 81.4219 71.248 80.5787 71.248Z" fill="white"/>
<path d="M77.5879 74.0636C77.5879 73.3521 76.9898 72.7754 76.252 72.7754C75.5142 72.7754 74.9161 73.3521 74.9161 74.0636C74.9161 74.775 75.5142 75.3518 76.252 75.3518C76.9898 75.3518 77.5879 74.775 77.5879 74.0636Z" fill="white"/>
<path d="M140.451 76.0327L137.768 76.9411V80.6466C137.768 80.7965 137.896 80.918 138.054 80.918H139.199C139.357 80.918 139.486 80.7965 139.486 80.6466V78.7468H142.348V80.6466C142.348 80.7965 142.476 80.918 142.635 80.918H143.78C143.938 80.918 144.066 80.7965 144.066 80.6466V77.0181C144.731 76.7934 145.211 76.1966 145.211 75.4899C145.211 75.1901 144.955 74.9471 144.638 74.9471C144.322 74.9471 144.066 75.1901 144.066 75.4899C144.065 75.7895 143.809 76.0322 143.493 76.0327H140.451ZM136.05 74.1329V74.6757C136.05 75.2753 136.563 75.7613 137.196 75.7613H137.768V76.3649L140.058 75.5895V73.0473C140.058 72.8056 139.75 72.6844 139.57 72.8554L139.081 73.3187H138.122C137.927 73.3187 137.697 73.453 137.61 73.6188L137.482 73.8615H136.337C136.179 73.8615 136.05 73.983 136.05 74.1329ZM138.054 74.1329C138.054 73.983 138.182 73.8615 138.341 73.8615C138.499 73.8615 138.627 73.983 138.627 74.1329C138.627 74.2828 138.499 74.4043 138.341 74.4043C138.182 74.4043 138.054 74.2828 138.054 74.1329Z" fill="white"/>
<path d="M149.344 78.9162L148.095 79.8157C148.453 79.8998 148.722 80.2133 148.722 80.5908V80.8623C148.722 81.1551 148.479 81.3881 148.185 81.3881H145.075C144.313 81.3881 143.69 80.7897 143.69 80.048V75.7053C143.69 75.5489 143.552 75.4169 143.379 75.4169C142.928 75.4169 142.559 75.0622 142.559 74.6196C142.559 74.1769 142.928 73.8223 143.379 73.8223C144.452 73.8223 145.329 74.6643 145.329 75.7053V76.4688C145.718 76.0919 146.17 75.827 146.666 75.6591C147.134 75.5005 147.543 75.4508 147.948 75.4508H148.154L148.197 75.6524C148.385 76.5369 149.205 77.1879 150.164 77.1879C150.321 77.1879 150.483 77.1646 150.668 77.1184L150.984 77.0397V80.8623C150.984 81.1551 150.741 81.3881 150.447 81.3881H149.881C149.587 81.3881 149.344 81.1551 149.344 80.8623V78.9162Z" fill="white" stroke="#CACACA"/>
<path d="M150.729 74.0769H149.598L148.467 72.9912V75.2712C148.467 76.1706 149.226 76.8997 150.163 76.8997C151.1 76.8997 151.86 76.1706 151.86 75.2712V72.9912L150.729 74.0769Z" fill="white"/>
<path d="M149.459 75.4335C149.302 75.4335 149.176 75.312 149.176 75.162C149.176 75.0121 149.302 74.8906 149.459 74.8906C149.615 74.8906 149.741 75.0121 149.741 75.162C149.741 75.312 149.615 75.4335 149.459 75.4335Z" fill="#EAEAEA"/>
<path d="M150.871 75.4335C150.714 75.4335 150.588 75.312 150.588 75.162C150.588 75.0121 150.714 74.8906 150.871 74.8906C151.027 74.8906 151.153 75.0121 151.153 75.162C151.153 75.312 151.027 75.4335 150.871 75.4335Z" fill="#EAEAEA"/>
<ellipse opacity="0.5" cx="139" cy="177.5" rx="139" ry="7.5" fill="#CACACA"/>
<path fill-rule="evenodd" clip-rule="evenodd" d="M41.9185 73.0559C43.1474 71.1739 45.7371 69.4283 49.6876 67.8193C53.0314 71.5497 55.716 74.5459 61.4088 72.7525C67.1017 70.9592 71.8538 63.5374 74.5789 59.9783C75.6625 60.4768 76.483 60.8678 77.0406 61.1513C74.4001 66.6777 71.6047 74.5975 64.4407 78.2059C57.2768 81.8142 46.3907 79.6815 41.9185 73.0559Z" fill="#B05C5C"/>
<path fill-rule="evenodd" clip-rule="evenodd" d="M41.7893 72.5468C43.0208 70.6637 45.6138 68.9159 49.5686 67.3034C50.8068 68.684 52.0864 69.761 53.4477 70.5536L48.2785 78.0228C45.6594 76.8422 43.436 74.9862 41.7893 72.5468Z" fill="#FFDE11"/>
<path fill-rule="evenodd" clip-rule="evenodd" d="M40.6546 42.2402C34.1343 42.2402 31.6406 46.0785 31.6406 51.2543C31.6406 56.43 31.4437 57.4315 22.7346 57.4315C14.0255 57.4315 13.4214 70.0271 22.531 70.0271C28.6041 70.0271 36.3056 70.0271 45.6358 70.0271C46.6618 51.5025 45.0014 42.2402 40.6546 42.2402Z" fill="#0E1630"/>
<path fill-rule="evenodd" clip-rule="evenodd" d="M75.9686 62.561C77.219 62.8567 79.2272 61.2054 79.5075 60.975C79.7878 60.7446 81.1612 59.683 81.3532 59.2078C81.5453 58.7326 81.7949 57.911 81.3433 57.3028C80.5496 57.4836 79.3152 57.8148 78.3061 58.0799C77.297 58.345 76.7656 58.3559 77.1019 57.5455C77.4382 56.735 77.6716 55.9647 77.1636 55.9807C76.6555 55.9967 76.0069 57.4944 75.3038 58.0723C74.835 58.4577 74.558 59.2032 74.4727 60.3091C74.6363 61.6132 75.1349 62.3639 75.9686 62.561Z" fill="#B05C5C"/>
<path fill-rule="evenodd" clip-rule="evenodd" d="M29.7891 91.7061L27.957 93.2827V96.181L29.7891 105.141V91.7061Z" fill="#B05C5C"/>
<path fill-rule="evenodd" clip-rule="evenodd" d="M51.0605 97.2031H29.4142L28.1594 104.837H51.0605V97.2031Z" fill="#AEAEAE"/>
<path fill-rule="evenodd" clip-rule="evenodd" d="M50.5527 104.531H37.7281L43.6471 172.319H50.5527V104.531Z" fill="url(#paint2_linear)"/>
<path fill-rule="evenodd" clip-rule="evenodd" d="M28.1601 104.531H51.0613C42.9922 130.133 34.0244 151.948 24.1578 169.978C22.2683 169.105 18.069 167.047 16.4551 166.331C23.3359 149.513 27.2375 128.913 28.1601 104.531Z" fill="#AEAEAE"/>
<path d="M45.8851 48.2687C45.8851 45.2769 43.4597 42.8516 40.4679 42.8516C37.4761 42.8516 35.0508 45.2769 35.0508 48.2687V54.1638C35.0508 57.1556 37.4761 59.581 40.4679 59.581C43.4597 59.581 45.8851 57.1556 45.8851 54.1638V48.2687Z" fill="#B05C5C"/>
<path d="M35.1745 52.4844C35.7864 52.4844 36.2825 51.9737 36.2825 51.3438C36.2825 50.7138 35.7864 50.2031 35.1745 50.2031C34.5625 50.2031 34.0664 50.7138 34.0664 51.3438C34.0664 51.9737 34.5625 52.4844 35.1745 52.4844Z" fill="#B05C5C"/>
<path d="M43.1777 49.8578C43.5439 49.5767 44.1562 49.6411 44.4089 50.2023" stroke="#0E1630" stroke-width="0.6048" stroke-linecap="round" stroke-linejoin="round"/>
<path d="M39.9766 49.8578C39.6104 49.5767 38.9981 49.6411 38.7454 50.2023" stroke="#0E1630" stroke-width="0.6048" stroke-linecap="round" stroke-linejoin="round"/>
<path d="M42.4875 51.2158L42.8143 53.2745C42.8689 53.6185 42.6343 53.9416 42.2903 53.9963C42.2576 54.0014 42.2245 54.0041 42.1914 54.0041" stroke="#8A3D3D" stroke-width="0.6048" stroke-linecap="round" stroke-linejoin="round"/>
<path fill-rule="evenodd" clip-rule="evenodd" d="M40.0322 54.621C40.668 54.6006 42.4516 54.9586 42.7869 55.2005C43.1222 55.4425 42.2069 56.5722 41.1201 56.4159C40.0334 56.2596 39.3964 54.6413 40.0322 54.621Z" fill="white"/>
<path d="M44.1398 76.4392C40.9356 76.4392 38.3381 73.8417 38.3381 70.6376C38.3381 67.4334 40.9356 64.8359 44.1398 64.8359C47.3439 64.8359 49.9414 67.4334 49.9414 70.6376C49.9414 73.8417 47.3439 76.4392 44.1398 76.4392Z" fill="#FFDE11"/>
<path fill-rule="evenodd" clip-rule="evenodd" d="M23.4972 66.0576C17.9678 71.1476 7.80385 79.5079 7.80385 84.6078C7.80385 88.0078 14.4135 92.0027 27.6328 96.5925V93.0919C20.2573 88.2335 16.5696 85.4054 16.5696 84.6078C16.5696 83.8102 20.9761 80.7744 29.789 75.5005C29.8034 70.392 27.7061 67.2444 23.4972 66.0576Z" fill="#B05C5C"/>
<path d="M37.7271 58.1182H42.002V64.2251H37.7271V58.1182Z" fill="#B05C5C"/>
<path fill-rule="evenodd" clip-rule="evenodd" d="M43.4796 64.2246H28.6848C27.6241 64.2246 26.7642 65.0845 26.7642 66.1452C26.7642 66.2001 26.7665 66.255 26.7712 66.3097L29.3666 96.4999C29.4008 96.8972 29.7333 97.2023 30.132 97.2023H50.3939C50.8182 97.2023 51.1621 96.8584 51.1621 96.4341V71.9071C51.1621 67.6642 47.7225 64.2246 43.4796 64.2246Z" fill="url(#paint3_linear)"/>
<path d="M27.6515 75.8279C24.4473 75.8279 21.8499 73.2304 21.8499 70.0262C21.8499 66.8221 24.4473 64.2246 27.6515 64.2246C30.8556 64.2246 33.4531 66.8221 33.4531 70.0262C33.4531 73.2304 30.8556 75.8279 27.6515 75.8279Z" fill="#FFDE11"/>
<path fill-rule="evenodd" clip-rule="evenodd" d="M30.8006 74.8282C28.9598 75.9478 27.9561 76.6865 25.6562 78.0946C23.3932 74.8461 22.0543 73.4113 18.5246 70.6325C19.6489 69.6321 21.4211 67.9696 23.8411 65.645C28.4993 66.9547 30.8192 70.0158 30.8006 74.8282Z" fill="#FFDE11"/>
<path fill-rule="evenodd" clip-rule="evenodd" d="M26.5534 77.7402C26.0918 78.0374 25.6223 78.3382 25.147 78.6403C23.0732 75.5564 21.2017 73.4489 17.9479 70.8243C18.3106 70.4917 18.7658 70.0688 19.3133 69.5556C23.0006 72.4482 24.992 74.6616 26.5534 77.7402Z" fill="#FFDE11"/>
<path fill-rule="evenodd" clip-rule="evenodd" d="M44.0325 172.319H50.822L56.1254 174.505C56.5177 174.667 56.7046 175.116 56.543 175.508C56.4244 175.796 56.1439 175.984 55.8327 175.984H44.1804C43.7561 175.984 43.4121 175.64 43.4121 175.215C43.4121 175.16 43.4182 175.104 43.4301 175.05L44.0325 172.319Z" fill="#0E1630"/>
<path fill-rule="evenodd" clip-rule="evenodd" d="M17.8382 167.112L24.0407 169.873L27.9967 174.027C28.2893 174.334 28.2774 174.821 27.9702 175.113C27.7448 175.328 27.4122 175.385 27.1279 175.259L16.4829 170.519C16.0953 170.347 15.921 169.893 16.0936 169.505C16.1162 169.454 16.1443 169.406 16.1774 169.361L17.8382 167.112Z" fill="#0E1630"/>
<path fill-rule="evenodd" clip-rule="evenodd" d="M40.6279 66.6675C38.694 66.0295 37.7271 65.317 37.7271 64.53C37.7271 63.3495 38.684 62.3926 39.8645 62.3926C41.045 62.3926 42.002 63.3495 42.002 64.53C42.002 65.317 41.5439 66.0295 40.6279 66.6675Z" fill="#B05C5C"/>
<path fill-rule="evenodd" clip-rule="evenodd" d="M35.0495 50.2017C32.4871 44.6022 36.4614 42.2402 40.1715 42.2402C43.8816 42.2402 47.2465 43.9853 45.8714 48.9579C44.9219 48.9579 44.1076 48.0456 43.4286 46.221C38.4055 48.8748 35.6125 50.2017 35.0495 50.2017Z" fill="#0E1630"/>
<path fill-rule="evenodd" clip-rule="evenodd" d="M42.002 64.8359H39.4574V66.4439L40.7297 66.8716L42.002 65.9343V64.8359Z" fill="url(#paint4_linear)"/>
<path fill-rule="evenodd" clip-rule="evenodd" d="M37.7005 63.0039L40.7812 64.6951L38.9254 66.6681L37.2188 64.1376L37.7005 63.0039Z" fill="url(#paint5_linear)"/>
<path fill-rule="evenodd" clip-rule="evenodd" d="M40.7812 64.6951L42.2626 66.6681L42.6133 64.1376L42.2802 63.0039L40.7812 64.6951Z" fill="url(#paint6_linear)"/>
<path d="M39.3563 51.9094C39.0753 51.9094 38.8474 51.6816 38.8474 51.4005C38.8474 51.1195 39.0753 50.8916 39.3563 50.8916C39.6374 50.8916 39.8652 51.1195 39.8652 51.4005C39.8652 51.6816 39.6374 51.9094 39.3563 51.9094Z" fill="#0E1630"/>
<path d="M43.4266 51.9094C43.1456 51.9094 42.9177 51.6816 42.9177 51.4005C42.9177 51.1195 43.1456 50.8916 43.4266 50.8916C43.7077 50.8916 43.9355 51.1195 43.9355 51.4005C43.9355 51.6816 43.7077 51.9094 43.4266 51.9094Z" fill="#0E1630"/>
<path d="M85.6673 40.2041H72.4355V59.034H85.6673V40.2041Z" fill="#EAEAEA"/>
<path d="M74.9785 42.4941H83.1212" stroke="#AEAEAE" stroke-linecap="round" stroke-linejoin="round"/>
<path d="M74.9785 44.0215H83.1212" stroke="#AEAEAE" stroke-linecap="round" stroke-linejoin="round"/>
<path d="M74.9785 45.5488H83.1212" stroke="#AEAEAE" stroke-linecap="round" stroke-linejoin="round"/>
<path d="M74.9785 47.0752H83.1212" stroke="#AEAEAE" stroke-linecap="round" stroke-linejoin="round"/>
<path d="M74.9785 48.6016H83.1212" stroke="#AEAEAE" stroke-linecap="round" stroke-linejoin="round"/>
<path d="M74.9785 50.1289H83.1212" stroke="#AEAEAE" stroke-linecap="round" stroke-linejoin="round"/>
<path d="M74.9785 51.6553H83.1212" stroke="#AEAEAE" stroke-linecap="round" stroke-linejoin="round"/>
<path d="M74.9785 53.1826H83.1212" stroke="#AEAEAE" stroke-linecap="round" stroke-linejoin="round"/>
<path d="M74.9785 54.709H83.1212" stroke="#AEAEAE" stroke-linecap="round" stroke-linejoin="round"/>
<path d="M91.7683 44.3854L79.5 39.4287L72.4462 56.8875L84.7145 61.8442L91.7683 44.3854Z" fill="#EAEAEA"/>
<path d="M81.002 42.5049L88.5517 45.5552" stroke="#AEAEAE" stroke-linecap="round" stroke-linejoin="round"/>
<path d="M80.4316 43.9209L87.9814 46.9712" stroke="#AEAEAE" stroke-linecap="round" stroke-linejoin="round"/>
<path d="M79.8594 45.3369L87.4091 48.3872" stroke="#AEAEAE" stroke-linecap="round" stroke-linejoin="round"/>
<path d="M79.2852 46.752L86.8349 49.8022" stroke="#AEAEAE" stroke-linecap="round" stroke-linejoin="round"/>
<path d="M78.7148 48.167L86.2646 51.2173" stroke="#AEAEAE" stroke-linecap="round" stroke-linejoin="round"/>
<path d="M78.1406 49.584L85.6904 52.6343" stroke="#AEAEAE" stroke-linecap="round" stroke-linejoin="round"/>
<path d="M77.5723 50.999L85.122 54.0493" stroke="#AEAEAE" stroke-linecap="round" stroke-linejoin="round"/>
<path d="M77 52.4141L84.5497 55.4644" stroke="#AEAEAE" stroke-linecap="round" stroke-linejoin="round"/>
<path d="M76.4297 53.8311L83.9794 56.8813" stroke="#AEAEAE" stroke-linecap="round" stroke-linejoin="round"/>
<path d="M88.4409 41.2165L75.3379 39.375L72.7173 58.0216L85.8203 59.8631L88.4409 41.2165Z" fill="#F2F2F2"/>
<path d="M77.5391 41.9971L85.6025 43.1303" stroke="#AEAEAE" stroke-linecap="round" stroke-linejoin="round"/>
<path d="M77.3281 43.5078L85.3915 44.641" stroke="#AEAEAE" stroke-linecap="round" stroke-linejoin="round"/>
<path d="M77.1172 45.0205L85.1806 46.1537" stroke="#AEAEAE" stroke-linecap="round" stroke-linejoin="round"/>
<path d="M76.9023 46.5322L84.9657 47.6655" stroke="#AEAEAE" stroke-linecap="round" stroke-linejoin="round"/>
<path d="M76.6914 48.0449L84.7548 49.1782" stroke="#AEAEAE" stroke-linecap="round" stroke-linejoin="round"/>
<path d="M76.4785 49.5557L84.5419 50.6889" stroke="#AEAEAE" stroke-linecap="round" stroke-linejoin="round"/>
<path d="M76.2676 51.0674L84.331 52.2006" stroke="#AEAEAE" stroke-linecap="round" stroke-linejoin="round"/>
<path d="M76.0527 52.5801L84.1161 53.7133" stroke="#AEAEAE" stroke-linecap="round" stroke-linejoin="round"/>
<path d="M75.8418 54.0918L83.9052 55.225" stroke="#AEAEAE" stroke-linecap="round" stroke-linejoin="round"/>
<path fill-rule="evenodd" clip-rule="evenodd" d="M75.9646 62.561C77.2151 62.8567 77.6281 61.1714 77.6281 59.8631C77.6281 58.5548 76.7617 58.3559 77.098 57.5455C77.4343 56.735 77.6677 55.9647 77.1596 55.9807C76.6516 55.9967 76.003 57.4944 75.2999 58.0723C74.8311 58.4577 74.5541 59.2032 74.4688 60.3091C74.6324 61.6132 75.131 62.3639 75.9646 62.561Z" fill="#B05C5C"/>
<path d="M86.4345 116.034C91.6342 116.034 95.8494 111.819 95.8494 106.619C95.8494 101.419 91.6342 97.2041 86.4345 97.2041C81.2347 97.2041 77.0195 101.419 77.0195 106.619C77.0195 111.819 81.2347 116.034 86.4345 116.034Z" fill="#6C2121"/>
<path fill-rule="evenodd" clip-rule="evenodd" d="M71.3664 134.684L85.9978 134.77C90.0344 134.794 93.9807 135.967 97.3751 138.152L125.108 156.002C130.455 159.443 131.999 166.568 128.558 171.915C126.439 175.207 122.792 177.197 118.876 177.197H71.807C60.0697 177.197 50.5547 167.682 50.5547 155.945V155.374C50.5547 143.947 59.8179 134.684 71.2446 134.684C71.2852 134.684 71.3258 134.684 71.3664 134.684Z" fill="white"/>
<path d="M92.7487 109.365C92.7487 106.527 90.4483 104.227 87.6107 104.227C84.773 104.227 82.4727 106.527 82.4727 109.365V114.673C82.4727 117.51 84.773 119.811 87.6107 119.811C90.4483 119.811 92.7487 117.51 92.7487 114.673V109.365Z" fill="#FDC3B2"/>
<path d="M90.1016 110.598C90.4677 110.317 91.08 110.381 91.3327 110.942" stroke="#0E1630" stroke-width="0.6048" stroke-linecap="round" stroke-linejoin="round"/>
<path d="M86.8984 110.598C86.5323 110.317 85.92 110.381 85.6673 110.942" stroke="#0E1630" stroke-width="0.6048" stroke-linecap="round" stroke-linejoin="round"/>
<path d="M89.4152 111.957L90.1046 113.431C90.3207 113.893 90.1214 114.442 89.6595 114.658C89.537 114.716 89.4035 114.745 89.2682 114.745H89.1191" stroke="#DB9682" stroke-width="0.6048" stroke-linecap="round" stroke-linejoin="round"/>
<path d="M86.2824 112.651C86.5634 112.651 86.7913 112.423 86.7913 112.142C86.7913 111.861 86.5634 111.633 86.2824 111.633C86.0013 111.633 85.7734 111.861 85.7734 112.142C85.7734 112.423 86.0013 112.651 86.2824 112.651Z" fill="#0E1630"/>
<path d="M90.3566 112.651C90.6376 112.651 90.8655 112.423 90.8655 112.142C90.8655 111.861 90.6376 111.633 90.3566 111.633C90.0755 111.633 89.8477 111.861 89.8477 112.142C89.8477 112.423 90.0755 112.651 90.3566 112.651Z" fill="#0E1630"/>
<path fill-rule="evenodd" clip-rule="evenodd" d="M97.0059 149.215L99.0611 150.664V153.328L97.5478 157.007L97.0059 149.215Z" fill="#FFF3D9"/>
<path d="M82.4749 113.048C83.0424 113.048 83.5025 112.587 83.5025 112.018C83.5025 111.45 83.0424 110.989 82.4749 110.989C81.9073 110.989 81.4473 111.45 81.4473 112.018C81.4473 112.587 81.9073 113.048 82.4749 113.048Z" fill="#FDC3B2"/>
<path d="M89.6671 118.487H85.5566V124.085H89.6671V118.487Z" fill="#FDC3B2"/>
<path fill-rule="evenodd" clip-rule="evenodd" d="M86.8789 129.382C89.2455 128.383 92.8134 128.383 97.5827 129.382C98.3647 135.052 100.845 138.817 105.529 141.543C106.936 142.362 108.514 142.968 110.19 143.384C115.336 144.662 121.4 144.149 126.255 142.517C127.309 144.306 127.836 145.201 127.836 145.201C121.804 148.751 114.944 149.762 108.874 149.23C107.508 149.11 106.182 148.912 104.914 148.647C93.6413 146.292 86.8789 138.517 86.8789 129.382Z" fill="#DA9B88"/>
<path fill-rule="evenodd" clip-rule="evenodd" d="M86.8789 129.381C89.2486 128.383 92.8211 128.383 97.5966 129.381C97.8866 131.48 98.41 133.318 99.1924 134.939L89.5236 138.715C87.7981 135.923 86.8789 132.745 86.8789 129.381Z" fill="#FFDE11"/>
<path d="M92.2371 134.807C95.1964 134.807 97.5954 132.404 97.5954 129.44C97.5954 126.477 95.1964 124.074 92.2371 124.074C89.2779 124.074 86.8789 126.477 86.8789 129.44C86.8789 132.404 89.2779 134.807 92.2371 134.807Z" fill="#FFDE11"/>
<path fill-rule="evenodd" clip-rule="evenodd" d="M76.4678 124.074H92.1374C95.266 124.074 97.8433 126.531 97.9933 129.656L99.1639 154.04C99.1794 154.363 98.9298 154.638 98.6064 154.654C98.5971 154.654 98.5877 154.654 98.5783 154.654H79.4825C79.1894 154.654 78.9413 154.438 78.9016 154.148L75.0157 125.739C74.9059 124.937 75.4672 124.197 76.2692 124.088C76.335 124.079 76.4014 124.074 76.4678 124.074Z" fill="url(#paint7_linear)"/>
<path d="M84.6466 124.024L88.1016 126.651L86.1829 127.499C85.9406 127.645 85.6353 127.606 85.4336 127.404L82.1086 124.068L84.6466 124.024Z" fill="#EAEAEA"/>
<path d="M90.0846 123.915L88.1016 126.628L89.7014 127.372C89.9949 127.573 90.3832 127.478 90.5687 127.161C90.5759 127.149 90.5827 127.137 90.5892 127.124L92.1881 123.96L90.0846 123.915Z" fill="#EAEAEA"/>
<path fill-rule="evenodd" clip-rule="evenodd" d="M78.9517 154.508H99.2102L100.385 161.712H77.7773L78.9517 154.508Z" fill="#AEAEAE"/>
<path d="M85.5578 170.679C89.8548 170.679 93.3382 167.19 93.3382 162.887C93.3382 158.583 89.8548 155.095 85.5578 155.095C81.2608 155.095 77.7773 158.583 77.7773 162.887C77.7773 167.19 81.2608 170.679 85.5578 170.679Z" fill="#AEAEAE"/>
<path fill-rule="evenodd" clip-rule="evenodd" d="M94.3463 168.696C101.958 168.696 116.752 160.709 124.489 161.565C132.226 162.422 144.838 170.681 150.696 176.361C150.696 176.361 152.438 174.825 155.923 171.755C145.26 158.248 135.883 151.029 127.793 150.098C115.658 148.701 96.8604 152.524 93.3372 153.112C89.814 153.7 86.7341 168.696 94.3463 168.696Z" fill="url(#paint8_linear)"/>
<path fill-rule="evenodd" clip-rule="evenodd" d="M141.337 176.265L145.99 172.214L151.899 170.454C152.21 170.362 152.536 170.539 152.628 170.849C152.694 171.069 152.625 171.308 152.451 171.459L143.731 179.051C143.486 179.263 143.116 179.238 142.903 178.994C142.878 178.964 142.855 178.933 142.836 178.899L141.337 176.265Z" fill="#0E1630"/>
<path fill-rule="evenodd" clip-rule="evenodd" d="M151.145 175.919L155.799 171.868L161.708 170.109C162.018 170.016 162.345 170.193 162.437 170.503C162.503 170.724 162.433 170.962 162.26 171.113L153.539 178.705C153.295 178.918 152.925 178.892 152.712 178.648C152.687 178.619 152.664 178.587 152.645 178.553L151.145 175.919Z" fill="#0E1630"/>
<path fill-rule="evenodd" clip-rule="evenodd" d="M72.0508 129.382C74.4174 128.383 77.9853 128.383 82.7545 129.382C83.5365 135.052 86.0165 138.817 90.7005 141.543C92.1081 142.362 93.6863 142.968 95.3618 143.384C100.508 144.662 106.572 144.149 111.427 142.517C112.481 144.306 113.008 145.201 113.008 145.201C106.976 148.751 100.116 149.762 94.0457 149.23C92.6796 149.11 91.3535 148.912 90.0859 148.647C78.8131 146.292 72.0508 138.517 72.0508 129.382Z" fill="#FDC3B2"/>
<path fill-rule="evenodd" clip-rule="evenodd" d="M72.0508 129.381C74.4204 128.383 77.993 128.383 82.7685 129.381C83.2038 132.532 84.1648 135.094 85.7384 137.216L76.201 140.808C73.5093 137.562 72.0508 133.618 72.0508 129.381Z" fill="#FFDE11"/>
<path d="M77.2892 134.815C80.3107 134.815 82.76 132.305 82.76 129.209C82.76 126.113 80.3107 123.603 77.2892 123.603C74.2677 123.603 71.8184 126.113 71.8184 129.209C71.8184 132.305 74.2677 134.815 77.2892 134.815Z" fill="#FFDE11"/>
<path d="M112.127 145.539C113.018 145.539 113.741 144.815 113.741 143.922C113.741 143.029 113.018 142.305 112.127 142.305C111.235 142.305 110.512 143.029 110.512 143.922C110.512 144.815 111.235 145.539 112.127 145.539Z" fill="#FDC3B2"/>
<path fill-rule="evenodd" clip-rule="evenodd" d="M112.367 145.539C113.952 146.648 115.192 147.202 116.088 147.202C117.431 147.202 117.431 148.611 118.402 149.088C119.373 149.565 119.854 148.611 119.854 147.577C119.854 146.542 118.806 145.164 117.815 144.504C116.825 143.843 114.235 142.305 112.129 142.305" fill="#FDC3B2"/>
<path fill-rule="evenodd" clip-rule="evenodd" d="M86.0318 170.681C93.644 170.681 107.356 160.709 115.093 161.566C122.83 162.422 135.443 170.681 141.301 176.361C141.301 176.361 143.043 174.826 146.527 171.755C135.864 158.248 126.488 151.029 118.397 150.098C106.262 148.701 88.546 154.509 85.0228 155.097C81.4996 155.685 78.4197 170.681 86.0318 170.681Z" fill="#AEAEAE"/>
<path fill-rule="evenodd" clip-rule="evenodd" d="M118.187 135.542H138.409C138.733 135.542 138.995 135.804 138.995 136.128C138.995 136.16 138.993 136.192 138.988 136.224L136.911 148.773C136.864 149.056 136.619 149.264 136.332 149.264H116.11C115.786 149.264 115.523 149.001 115.523 148.678C115.523 148.646 115.526 148.614 115.531 148.582L117.608 136.033C117.655 135.75 117.9 135.542 118.187 135.542Z" fill="url(#paint9_linear)"/>
<path fill-rule="evenodd" clip-rule="evenodd" d="M84.0132 111.578C80.8917 111.578 78.3613 109.044 78.3613 105.918C78.3613 102.792 80.8917 100.258 84.0132 100.258C86.0841 100.258 87.8949 101.373 88.8792 103.037C89.4709 102.673 90.1674 102.463 90.9128 102.463C93.0613 102.463 94.803 104.207 94.803 106.359C94.803 108.511 93.0613 110.255 90.9128 110.255C89.9893 110.255 89.1409 109.933 88.4737 109.394C87.4395 110.724 85.826 111.578 84.0132 111.578Z" fill="#6C2121"/>
<path d="M136.539 150.244H106.252C105.981 150.244 105.762 150.025 105.762 149.754C105.762 149.483 105.981 149.264 106.252 149.264H136.539C136.81 149.264 137.029 149.483 137.029 149.754C137.029 150.025 136.81 150.244 136.539 150.244Z" fill="#777777"/>
<path d="M114.067 164.456H72.0508V177.198H114.067V164.456Z" fill="white"/>
<path d="M86.8789 115.707C87.6129 116.704 88.4711 116.76 89.6681 116.233" stroke="#CB7C64" stroke-width="0.8" stroke-linecap="round" stroke-linejoin="round"/>
<path fill-rule="evenodd" clip-rule="evenodd" d="M234.779 97.2012H256.714L257.986 105.14H234.779V97.2012Z" fill="#AEAEAE"/>
<path fill-rule="evenodd" clip-rule="evenodd" d="M235.387 104.53H248.211L242.292 172.318H235.387V104.53Z" fill="url(#paint10_linear)"/>
<path fill-rule="evenodd" clip-rule="evenodd" d="M257.982 104.53H234.776L250.234 172.318H257.982V104.53Z" fill="#AEAEAE"/>
<path fill-rule="evenodd" clip-rule="evenodd" d="M235.133 56.8438C234.461 55.1964 236.137 52.0427 236.371 51.6025C236.605 51.1623 239.428 50.2837 240.335 50.1577C241.242 50.0317 241.355 50.3743 240.692 52.7288C240.03 55.0832 240.4 54.7435 241.373 54.0877C242.346 53.432 243.29 52.9273 243.387 53.6291C243.484 54.3309 241.692 55.58 241.106 56.6842C240.714 57.4203 239.812 57.9791 238.398 58.3607C236.67 58.4477 235.582 57.942 235.133 56.8438Z" fill="#E39688"/>
<path d="M244.294 49.452L239.224 48.0934C238.931 48.0149 238.63 48.1889 238.551 48.4821L235.905 58.3593C235.826 58.6525 236 58.9539 236.293 59.0325L241.363 60.391C241.657 60.4696 241.958 60.2956 242.036 60.0024L244.683 50.1251C244.762 49.8319 244.588 49.5305 244.294 49.452Z" fill="#AEAEAE"/>
<path d="M243.123 50.3107L239.804 49.4216C239.511 49.343 239.21 49.517 239.131 49.8102L237.305 56.6245C237.227 56.9177 237.401 57.2191 237.694 57.2977L241.012 58.1868C241.305 58.2653 241.607 58.0913 241.685 57.7981L243.511 50.9838C243.59 50.6906 243.416 50.3892 243.123 50.3107Z" fill="white"/>
<path d="M240.058 48.2658C240.058 45.274 242.484 42.8486 245.475 42.8486C248.467 42.8486 250.893 45.274 250.893 48.2658V54.1609C250.893 57.1527 248.467 59.578 245.475 59.578C242.484 59.578 240.058 57.1527 240.058 54.1609V48.2658Z" fill="#E39688"/>
<path d="M250.769 52.4815C250.157 52.4815 249.661 51.9708 249.661 51.3408C249.661 50.7109 250.157 50.2002 250.769 50.2002C251.381 50.2002 251.877 50.7109 251.877 51.3408C251.877 51.9708 251.381 52.4815 250.769 52.4815Z" fill="#E39688"/>
<path d="M242.766 50.3636C242.399 50.0826 241.787 50.147 241.534 50.7081" stroke="#7C382C" stroke-width="0.6048" stroke-linecap="round" stroke-linejoin="round"/>
<path d="M245.967 50.3636C246.333 50.0826 246.945 50.147 247.198 50.7081" stroke="#7C382C" stroke-width="0.6048" stroke-linecap="round" stroke-linejoin="round"/>
<path d="M243.456 51.2129L242.669 53.3137C242.571 53.577 242.704 53.8702 242.967 53.9688C243.024 53.9902 243.085 54.0011 243.146 54.0011H243.752" stroke="#B96556" stroke-width="0.6048" stroke-linecap="round" stroke-linejoin="round"/>
<path fill-rule="evenodd" clip-rule="evenodd" d="M243.001 55.275C243.615 55.1121 245.434 55.0597 245.815 55.22C246.196 55.3803 245.558 56.687 244.464 56.7792C243.37 56.8713 242.386 55.4379 243.001 55.275Z" fill="white"/>
<path d="M241.698 75.7253C244.902 75.7253 247.5 73.1279 247.5 69.9237C247.5 66.7196 244.902 64.1221 241.698 64.1221C238.494 64.1221 235.896 66.7196 235.896 69.9237C235.896 73.1279 238.494 75.7253 241.698 75.7253Z" fill="#F2F2F2"/>
<path d="M248.007 58.0146H243.936V64.1216H248.007V58.0146Z" fill="#E39688"/>
<path fill-rule="evenodd" clip-rule="evenodd" d="M234.75 57.9295L236.348 57.9666L236.273 54.607L234.719 54.5878L234.75 57.9295Z" fill="#E39688"/>
<path fill-rule="evenodd" clip-rule="evenodd" d="M243.936 75.791C241.605 74.1745 240.651 63.5852 236.847 66.6665C233.044 69.7478 224.824 71.8873 223.668 68.8721C222.512 65.8569 226.682 58.8042 235.49 58.0366C235.492 56.7901 235.492 53.8418 235.338 53.8418C218.828 56.0736 214.329 65.9679 217.314 73.092C219.937 79.3505 236.469 82.3812 243.936 75.791Z" fill="url(#paint11_linear)"/>
<path fill-rule="evenodd" clip-rule="evenodd" d="M233.945 58.2425C234.444 58.1524 234.959 58.083 235.492 58.0366C235.493 56.7901 235.493 53.8418 235.339 53.8418C234.767 53.9191 234.21 54.0057 233.666 54.1009C233.682 54.6384 233.945 56.7559 233.945 58.2425Z" fill="#FFDE11"/>
<path fill-rule="evenodd" clip-rule="evenodd" d="M242.462 64.1221H257.289C258.349 64.1221 259.209 64.982 259.209 66.0427C259.209 66.0878 259.208 66.1329 259.204 66.1778L257.074 96.3856C257.045 96.7879 256.711 97.0998 256.307 97.0998H235.548C235.123 97.0998 234.779 96.7558 234.779 96.3315V71.8046C234.779 67.5616 238.219 64.1221 242.462 64.1221Z" fill="url(#paint12_linear)"/>
<path fill-rule="evenodd" clip-rule="evenodd" d="M241.393 64.1221H249.026L246.991 97.2016H241.393V64.1221Z" fill="url(#paint13_linear)"/>
<path fill-rule="evenodd" clip-rule="evenodd" d="M241.905 172.316H235.116L229.812 174.502C229.42 174.664 229.233 175.113 229.395 175.505C229.513 175.793 229.794 175.981 230.105 175.981H241.757C242.181 175.981 242.525 175.637 242.525 175.212C242.525 175.157 242.519 175.101 242.507 175.047L241.905 172.316Z" fill="#0E1630"/>
<path fill-rule="evenodd" clip-rule="evenodd" d="M257.786 172.316H250.996L245.693 174.502C245.301 174.664 245.114 175.113 245.275 175.505C245.394 175.793 245.674 175.981 245.986 175.981H257.638C258.062 175.981 258.406 175.637 258.406 175.212C258.406 175.157 258.4 175.101 258.388 175.047L257.786 172.316Z" fill="#0E1630"/>
<path fill-rule="evenodd" clip-rule="evenodd" d="M279.854 71.6645C281.116 72.0537 283.294 70.5252 283.597 70.3119C283.901 70.0986 285.386 69.1219 285.616 68.6543C285.847 68.1867 286.162 67.3724 285.741 66.724C284.914 66.8501 283.624 67.097 282.57 67.2932C281.516 67.4894 280.97 67.4622 281.372 66.6654C281.775 65.8687 282.069 65.1052 281.546 65.0849C281.024 65.0647 280.252 66.5351 279.49 67.0701C278.981 67.4268 278.644 68.1621 278.479 69.2761C278.554 70.6088 279.013 71.405 279.854 71.6645Z" fill="#E39688"/>
<path d="M256.661 75.3182C259.752 75.3182 262.259 72.8119 262.259 69.7201C262.259 66.6284 259.752 64.1221 256.661 64.1221C253.569 64.1221 251.062 66.6284 251.062 69.7201C251.062 72.8119 253.569 75.3182 256.661 75.3182Z" fill="white"/>
<path fill-rule="evenodd" clip-rule="evenodd" d="M251.875 72.5447C256.464 78.4967 263.865 89.6725 268.946 90.117C272.333 90.4133 276.888 84.177 282.613 71.408L279.126 71.1029C273.643 78.0269 270.504 81.4541 269.71 81.3845C268.915 81.315 266.275 76.6608 261.789 67.4218C256.729 66.7476 253.424 68.4552 251.875 72.5447Z" fill="url(#paint14_linear)"/>
<path fill-rule="evenodd" clip-rule="evenodd" d="M281.947 72.875C282.093 72.5554 282.316 72.0661 282.613 71.4071L279.126 71.102C278.702 71.6353 278.389 72.0293 278.185 72.284C279.126 72.4521 281.135 72.7978 281.947 72.875Z" fill="#FFDE11"/>
<path d="M249.027 62.0869H242.92V64.1226H249.027V62.0869Z" fill="#CE9A00"/>
<path d="M246.485 51.9094C246.767 51.9094 246.994 51.6816 246.994 51.4005C246.994 51.1195 246.767 50.8916 246.485 50.8916C246.204 50.8916 245.977 51.1195 245.977 51.4005C245.977 51.6816 246.204 51.9094 246.485 51.9094Z" fill="#0E1630"/>
<path d="M242.411 51.9094C242.692 51.9094 242.92 51.6816 242.92 51.4005C242.92 51.1195 242.692 50.8916 242.411 50.8916C242.13 50.8916 241.902 51.1195 241.902 51.4005C241.902 51.6816 242.13 51.9094 242.411 51.9094Z" fill="#0E1630"/>
<path fill-rule="evenodd" clip-rule="evenodd" d="M237.839 41.2217L240.059 47.7227H247.554C248.819 47.7227 249.845 48.7482 249.845 50.0134C249.845 50.217 250.01 50.3822 250.214 50.3822H251.615C251.79 50.3822 251.941 50.2588 251.976 50.0872L252.888 45.6265C253.025 45.2678 253.1 44.8787 253.1 44.4722C253.1 42.677 251.642 41.2217 249.845 41.2217H237.839Z" fill="#5B2D19"/>
<defs>
<filter id="filter0_d" x="39.0273" y="64.124" width="75.9807" height="74.4539" filterUnits="userSpaceOnUse" color-interpolation-filters="sRGB">
<feFlood flood-opacity="0" result="BackgroundImageFix"/>
<feColorMatrix in="SourceAlpha" type="matrix" values="0 0 0 0 0 0 0 0 0 0 0 0 0 0 0 0 0 0 127 0"/>
<feOffset dy="10"/>
<feGaussianBlur stdDeviation="5"/>
<feColorMatrix type="matrix" values="0 0 0 0 0 0 0 0 0 0 0 0 0 0 0 0 0 0 0.063101 0"/>
<feBlend mode="normal" in2="BackgroundImageFix" result="effect1_dropShadow"/>
<feBlend mode="normal" in="SourceGraphic" in2="effect1_dropShadow" result="shape"/>
</filter>
<filter id="filter1_d" x="106.205" y="64.124" width="75.9807" height="74.4539" filterUnits="userSpaceOnUse" color-interpolation-filters="sRGB">
<feFlood flood-opacity="0" result="BackgroundImageFix"/>
<feColorMatrix in="SourceAlpha" type="matrix" values="0 0 0 0 0 0 0 0 0 0 0 0 0 0 0 0 0 0 127 0"/>
<feOffset dy="10"/>
<feGaussianBlur stdDeviation="5"/>
<feColorMatrix type="matrix" values="0 0 0 0 0 0 0 0 0 0 0 0 0 0 0 0 0 0 0.063101 0"/>
<feBlend mode="normal" in2="BackgroundImageFix" result="effect1_dropShadow"/>
<feBlend mode="normal" in="SourceGraphic" in2="effect1_dropShadow" result="shape"/>
</filter>
<filter id="filter2_d" x="173.381" y="64.124" width="75.9807" height="74.4539" filterUnits="userSpaceOnUse" color-interpolation-filters="sRGB">
<feFlood flood-opacity="0" result="BackgroundImageFix"/>
<feColorMatrix in="SourceAlpha" type="matrix" values="0 0 0 0 0 0 0 0 0 0 0 0 0 0 0 0 0 0 127 0"/>
<feOffset dy="10"/>
<feGaussianBlur stdDeviation="5"/>
<feColorMatrix type="matrix" values="0 0 0 0 0 0 0 0 0 0 0 0 0 0 0 0 0 0 0.063101 0"/>
<feBlend mode="normal" in2="BackgroundImageFix" result="effect1_dropShadow"/>
<feBlend mode="normal" in="SourceGraphic" in2="effect1_dropShadow" result="shape"/>
</filter>
<filter id="filter3_d" x="39.0273" y="126.72" width="75.9807" height="74.4539" filterUnits="userSpaceOnUse" color-interpolation-filters="sRGB">
<feFlood flood-opacity="0" result="BackgroundImageFix"/>
<feColorMatrix in="SourceAlpha" type="matrix" values="0 0 0 0 0 0 0 0 0 0 0 0 0 0 0 0 0 0 127 0"/>
<feOffset dy="10"/>
<feGaussianBlur stdDeviation="5"/>
<feColorMatrix type="matrix" values="0 0 0 0 0 0 0 0 0 0 0 0 0 0 0 0 0 0 0.063101 0"/>
<feBlend mode="normal" in2="BackgroundImageFix" result="effect1_dropShadow"/>
<feBlend mode="normal" in="SourceGraphic" in2="effect1_dropShadow" result="shape"/>
</filter>
<filter id="filter4_d" x="106.205" y="126.72" width="75.9807" height="74.4539" filterUnits="userSpaceOnUse" color-interpolation-filters="sRGB">
<feFlood flood-opacity="0" result="BackgroundImageFix"/>
<feColorMatrix in="SourceAlpha" type="matrix" values="0 0 0 0 0 0 0 0 0 0 0 0 0 0 0 0 0 0 127 0"/>
<feOffset dy="10"/>
<feGaussianBlur stdDeviation="5"/>
<feColorMatrix type="matrix" values="0 0 0 0 0 0 0 0 0 0 0 0 0 0 0 0 0 0 0.063101 0"/>
<feBlend mode="normal" in2="BackgroundImageFix" result="effect1_dropShadow"/>
<feBlend mode="normal" in="SourceGraphic" in2="effect1_dropShadow" result="shape"/>
</filter>
<filter id="filter5_d" x="173.381" y="126.72" width="75.9807" height="74.4539" filterUnits="userSpaceOnUse" color-interpolation-filters="sRGB">
<feFlood flood-opacity="0" result="BackgroundImageFix"/>
<feColorMatrix in="SourceAlpha" type="matrix" values="0 0 0 0 0 0 0 0 0 0 0 0 0 0 0 0 0 0 127 0"/>
<feOffset dy="10"/>
<feGaussianBlur stdDeviation="5"/>
<feColorMatrix type="matrix" values="0 0 0 0 0 0 0 0 0 0 0 0 0 0 0 0 0 0 0.063101 0"/>
<feBlend mode="normal" in2="BackgroundImageFix" result="effect1_dropShadow"/>
<feBlend mode="normal" in="SourceGraphic" in2="effect1_dropShadow" result="shape"/>
</filter>
<linearGradient id="paint0_linear" x1="144.448" y1="43.2718" x2="144.448" y2="140.97" gradientUnits="userSpaceOnUse">
<stop stop-color="white"/>
<stop offset="1" stop-color="#F2F2F2"/>
</linearGradient>
<linearGradient id="paint1_linear" x1="144.448" y1="43.2718" x2="144.448" y2="140.97" gradientUnits="userSpaceOnUse">
<stop stop-color="white"/>
<stop offset="1" stop-color="#F2F2F2"/>
</linearGradient>
<linearGradient id="paint2_linear" x1="44.1404" y1="104.531" x2="44.1404" y2="172.319" gradientUnits="userSpaceOnUse">
<stop stop-color="#EAEAEA"/>
<stop offset="1" stop-color="#AEAEAE"/>
</linearGradient>
<linearGradient id="paint3_linear" x1="38.9631" y1="64.2246" x2="38.9631" y2="97.2023" gradientUnits="userSpaceOnUse">
<stop stop-color="white"/>
<stop offset="1" stop-color="#EAEAEA"/>
</linearGradient>
<linearGradient id="paint4_linear" x1="40.7297" y1="64.8359" x2="40.7297" y2="66.8716" gradientUnits="userSpaceOnUse">
<stop stop-color="#CD9900"/>
<stop offset="1" stop-color="#FFDE11"/>
</linearGradient>
<linearGradient id="paint5_linear" x1="39" y1="63.0039" x2="39" y2="66.6681" gradientUnits="userSpaceOnUse">
<stop stop-color="#CD9900"/>
<stop offset="1" stop-color="#FFDE11"/>
</linearGradient>
<linearGradient id="paint6_linear" x1="41.6972" y1="63.0039" x2="41.6972" y2="66.6681" gradientUnits="userSpaceOnUse">
<stop stop-color="#CD9900"/>
<stop offset="1" stop-color="#FFDE11"/>
</linearGradient>
<linearGradient id="paint7_linear" x1="87.0833" y1="124.074" x2="87.0833" y2="154.654" gradientUnits="userSpaceOnUse">
<stop stop-color="#CD9900"/>
<stop offset="1" stop-color="#FFDE11"/>
</linearGradient>
<linearGradient id="paint8_linear" x1="89.6309" y1="163.077" x2="155.923" y2="163.077" gradientUnits="userSpaceOnUse">
<stop stop-color="#EAEAEA"/>
<stop offset="1" stop-color="#AEAEAE"/>
</linearGradient>
<linearGradient id="paint9_linear" x1="127.259" y1="135.542" x2="127.259" y2="149.264" gradientUnits="userSpaceOnUse">
<stop stop-color="#EBEBEB"/>
<stop offset="1" stop-color="#D1D1D1"/>
</linearGradient>
<linearGradient id="paint10_linear" x1="241.799" y1="104.53" x2="241.799" y2="172.318" gradientUnits="userSpaceOnUse">
<stop stop-color="#EAEAEA"/>
<stop offset="1" stop-color="#AEAEAE"/>
</linearGradient>
<linearGradient id="paint11_linear" x1="230.195" y1="53.8418" x2="230.195" y2="79.4911" gradientUnits="userSpaceOnUse">
<stop offset="0.0065984" stop-color="#F3F3F3"/>
<stop offset="1" stop-color="#FCF8F8"/>
</linearGradient>
<linearGradient id="paint12_linear" x1="246.994" y1="64.1221" x2="246.994" y2="97.0998" gradientUnits="userSpaceOnUse">
<stop stop-color="#C2C2C2"/>
<stop offset="1" stop-color="#EAEAEA"/>
</linearGradient>
<linearGradient id="paint13_linear" x1="245.209" y1="64.1221" x2="245.209" y2="97.2016" gradientUnits="userSpaceOnUse">
<stop stop-color="#CD9900"/>
<stop offset="1" stop-color="#FFDE11"/>
</linearGradient>
<linearGradient id="paint14_linear" x1="251.438" y1="77.5417" x2="281.844" y2="80.2019" gradientUnits="userSpaceOnUse">
<stop stop-color="white"/>
<stop offset="1" stop-color="#F5F5F5"/>
</linearGradient>
</defs>
</svg>
