<svg enable-background="new 0 0 391 265" viewBox="0 0 391 265" xmlns="http://www.w3.org/2000/svg" xmlns:xlink="http://www.w3.org/1999/xlink"><clipPath id="a"><path d="m262.4 228.5c29.8-9.1 53.4-26.5 67.2-53.9 34.7-68.6-4.4-195.4-101.6-155.5s-113-.4-159.2 28.7c-39.8 25.2-55.8 104.5-3.4 151.3 60.5 2.5 53.5 29.7 90.9 39.1 27.7 7 50.7-23 106.1-9.7z"/></clipPath><g clip-path="url(#a)"><path clip-rule="evenodd" d="m0 0h391v265h-391z" fill="#d1dfef" fill-rule="evenodd"/><path clip-rule="evenodd" d="m233 132.8c-23.7 12.2-36.5 17.8-38.2 16.7s-3.1-13.1-3.8-36c1.2-.7 2.1-1.7 2.9-2.8 1.2-2.9 1.3-5.2.4-6.9-1.3-2.6-1.3-7.3-2.8-8.1s-1.8 1.4-1.8 4-1.6 1.7-4.2-.6c-2.7-2.2-5.9-5-8-6.7-2.1.8-2.4 3.2-2.5 4.7 0 1.5 2.7 6.3 3.3 7.3 1.2 2.4 2.7 4.6 4.5 6.7-7.2 33.9-7.1 53.1.2 57.7 11.3 7 43.8-3.9 62.6-9.1 3-10.9-1.2-19.9-12.6-26.9z" fill="#c1806f" fill-rule="evenodd"/><path clip-rule="evenodd" d="m224.1 136.2-22.2 10c-.4.2-.9.3-1.4.3s-1-.1-1.4-.4-.8-.6-1.1-1-.5-.9-.6-1.3l-1.3-17.8h-23.6l1.3 29.1c.6 13.4 11.5 18.1 25 18.1h16.3z" fill="#0b4c99" fill-rule="evenodd"/><path d="m193.6 125.9.1-4.8h-19.5v4.9z" fill="#fff"/><g clip-rule="evenodd" fill-rule="evenodd"><path d="m103.4 133.2c-23.7 12.2-36.4 17.8-38.2 16.7s-3.1-13.1-3.8-36c1.2-.7 2.2-1.7 2.9-2.8 1.2-2.9 1.3-5.1.4-6.9-1.3-2.6-1.3-7.3-2.8-8.1s-1.8 1.5-1.8 4-1.6 1.7-4.2-.6-5.8-5-8-6.7c-2.1.8-2.4 3.2-2.5 4.7 0 1.5 2.7 6.3 3.2 7.3 1.2 2.4 2.7 4.6 4.5 6.6-7.2 33.9-7.1 53.1.2 57.7 11.3 7 43.8-3.9 62.6-9.2 3.1-10.7-1.1-19.7-12.5-26.7z" fill="#d78359"/><path d="m102.6 83.2c-.6 2.4-.9 4.9-.8 7.4 4.3 0 4.9-11 4.9-11z" fill="#0e1630"/><path d="m109.1 130.5-36.2 12.1 7.9 32.5 11.1-3.3z" fill="#fdde4c"/><path d="m141.8 128.9c13.2 0 16.7 12.1 15.9 19.2l-6.9 87.2c0 .5-.3 1-.7 1.4s-.9.6-1.5.6h-65.1c-.6 0-1.1-.2-1.5-.6s-.6-.9-.6-1.5l7.1-84.7c0-5.4 2-10.5 5.6-14.5s8.6-6.4 13.9-6.9" fill="#d1b339"/><path d="m116.7 147.9 10.2-19.1h-15.2z" fill="#fff"/><path d="m263.6 128.9h11.9c1.7 0 3.3.4 4.9 1s2.9 1.7 4 2.9 2 2.7 2.5 4.3.7 3.3.5 5l-8.8 93.1c0 .5-.3 1-.7 1.4s-.9.6-1.5.6h-67.1c-.6 0-1.1-.2-1.5-.6s-.6-.9-.6-1.5l7.1-84.7c0-5.4 2-10.5 5.6-14.5s8.6-6.4 13.9-6.9" fill="#0f5aca"/><path d="m239.7 128.8 2.3 3.6c.3.5.8.9 1.3 1.2s1.1.5 1.7.5 1.2-.1 1.7-.3 1-.6 1.4-1.1l3.2-3.9z" fill="#c1806f"/></g><path d="m114.9 187c1.3 0 2.4-1.1 2.4-2.4s-1.1-2.4-2.4-2.4-2.4 1.1-2.4 2.4 1 2.4 2.4 2.4z" fill="#fff7c3"/><path clip-rule="evenodd" d="m282.1 111.6c.2.8.5 1.5 1.1 2.1s1.2.9 2 1h-.1c-.7.2-1.4.5-1.9 1.1-.5.5-.9 1.2-1 1.9-.1-.7-.5-1.4-1-2s-1.2-.9-1.9-1.1c.7-.1 1.4-.5 2-1 .3-.4.7-1.1.8-2z" fill="#fff" fill-rule="evenodd"/><path clip-rule="evenodd" d="m213.8 120.6c.2.8.5 1.5 1.1 2s1.2.9 1.9 1h-.1c-.7.2-1.4.5-1.9 1.1-.5.5-.9 1.2-1 2-.2-.7-.5-1.4-1-1.9s-1.2-.9-1.9-1c.7-.1 1.4-.5 2-1.1.4-.6.8-1.2.9-2.1z" fill="#fff" fill-rule="evenodd"/></g><path d="m169.2 118.7c-.2.2-.3.4-.6.5-.2.1-.5.2-.7.3-.3 0-.5 0-.8 0-.2-.1-.5-.2-.7-.3-9.6-7.4-16.3-18-18.9-29.9-1.1-4.9-1.5-10-1.2-15.1 0-.3.1-.5.2-.8s.3-.4.5-.6.4-.3.7-.4.5-.1.8-.1l8.6 1.3s-3.8 7.4.9 13.6c4.3 5.5 5.6 19.3 13.2 25.3.4.3.6.7.7 1.2s0 1-.3 1.4z" fill="#602b07"/><path d="m46.2 18.3h337.8c1.2 0 2.3.5 3.2 1.3.8.8 1.3 2 1.3 3.2v78.2c0 1.2-.5 2.3-1.3 3.2-.8.8-2 1.3-3.2 1.3h-337.8c-11.6 0-22.6-4.6-30.8-12.8s-12.8-19.3-12.8-30.9 4.6-22.7 12.8-30.9 19.3-12.8 30.8-12.8z" fill="#602b07"/><path d="m91 41.5c10.8-2.8 21.8-4.9 32.8-6.6s22.2-2.9 33.3-3.4c2.8-.1 5.6-.2 8.4-.2 2.8.1 5.6 0 8.4.2s5.6.3 8.5.7l4.2.5c1.4.2 2.8.6 4.2.9s2.9.6 4.2.9 2.6.7 4 1l8.1 1.8c5.4 1.1 10.8 2.1 16.3 2.9 10.9 1.8 21.9 3.3 32.9 4.4 11 1.2 22 2.1 33.1 2.7 11 .6 22.1.7 33.1.1 5.5-.2 11-.8 16.5-1.7 2.7-.4 5.4-1 8.1-1.7 1.4-.3 2.7-.8 4-1.2s2.6-1 3.8-1.5c-4.9 2.7-10.2 4.7-15.6 5.9-5.4 1.3-11 2.3-16.5 2.9-11.1 1.2-22.3 1.7-33.5 1.5-22.3-.4-44.6-2.3-66.7-5.9-5.5-.9-11-2-16.5-3.1-2.7-.6-5.5-1.2-8.2-1.9-1.4-.3-2.7-.7-4.1-1.1s-2.7-.6-3.9-1c-10.5-2.5-21.5-2.9-32.5-3s-22.1.7-33.1 1.7c-11.2 1.3-22.3 2.7-33.3 4.2zm10 12.1c8.4 3.1 16.8 6.1 25.1 9 8.4 2.9 16.7 5.6 25.2 8.1 8.4 2.5 16.9 4.6 25.5 6.6s17.3 3.1 26.2 4.1c-8.9 1.3-18 1.4-26.9.3-9-1.1-17.8-2.9-26.5-5.4-8.6-2.6-17-5.8-25.2-9.5-8.1-3.8-16-8.2-23.4-13.2zm253.8 25.2c-18.5 1.3-37.1 1.7-55.7 1-18.6-.6-37.1-2-55.6-4.2s-36.8-5.6-54.9-10.1c-18-4.6-35.9-10.6-52.3-19.2 17.4 6.3 35.2 11.2 53.3 14.8 9 1.8 18.1 3.5 27.2 4.9s18.2 2.8 27.4 3.9 18.3 2.2 27.5 3c9.2.9 18.4 1.7 27.6 2.4 18.5 1.5 36.9 2.6 55.5 3.5z" fill="#dd894a" opacity=".1"/><path d="m299.8 44.1c-.3 0-.5 0-.8-.1s-.5-.2-.7-.4-.4-.4-.5-.6-.2-.5-.2-.8c-.1-5.3.9-10.5 2.9-15.4 2.3-5.4 5.8-10.2 10.3-13.9 5.7-4.6 12.3-8 19.3-9.8.2-.1.5-.1.8-.1s.5.1.7.2.4.3.6.5.3.4.3.7l.8 3.3c.1.5.1 1-.2 1.4-.2.4-.6.8-1.1.9-11.4 3.2-13 12.4-21.5 20.8-3.3 3.2-2.1 8.1-2.1 10.3 0 .5-.2.9-.5 1.3s-.7.6-1.2.6z" fill="#602b07"/><path d="m97.9 42.4c9.8-2.6 19.9-4.4 30-6 10.1-1.5 20.3-2.7 30.4-3 2.6-.1 5-.2 7.6-.2s5.2 0 7.7.2c2.6.1 5.2.2 7.7.7l3.9.5c1.3.2 2.6.5 3.9.8 1.3.2 2.6.5 3.9.8 1.2.3 2.5.6 3.6.9 2.5.6 4.9 1.2 7.4 1.6 4.9.8 9.8 1.8 14.9 2.6 10 1.6 20 2.9 30 4.1 10.1 1.2 20.1 1.9 30.2 2.5 10.1.5 20.1.7 30.2.1 5-.2 10.1-.7 15-1.5 2.5-.4 4.9-.9 7.4-1.5 1.3-.2 2.5-.7 3.6-1.1 1.2-.4 2.3-.9 3.5-1.4-4.4 2.6-9.4 4.2-14.3 5.4-4.9 1.3-10.1 2.1-15.1 2.7-10.2 1.2-20.4 1.5-30.6 1.4-20.4-.2-40.7-2.2-60.9-5.4-4.9-.9-10-1.9-15-2.9-2.5-.5-5-1.1-7.5-1.8-1.3-.4-2.5-.6-3.7-.9s-2.5-.6-3.6-.9c-9.6-2.2-19.7-2.6-29.7-2.7-10.1 0-20.1.6-30.2 1.5-10.2.9-20.3 2.1-30.3 3.5zm9.1 11c7.7 2.8 15.3 5.5 22.9 8.2 7.6 2.6 15.3 5.2 22.9 7.4 7.7 2.2 15.5 4.2 23.3 6 7.8 1.6 15.8 2.8 24 3.7-8.1 1.2-16.4 1.2-24.6.2-8.2-.9-16.3-2.7-24.1-5s-15.6-5.3-23.1-8.7c-7.3-3.2-14.5-7.1-21.3-11.8zm231.8 23c-16.9 1.3-33.8 1.4-50.8.9s-33.9-1.8-50.8-3.9-33.6-4.9-50.1-9.2c-16.5-4.2-32.8-9.6-47.8-17.4 15.9 5.9 32.2 10.2 48.7 13.6 8.2 1.6 16.5 3.2 24.8 4.4 8.3 1.4 16.6 2.5 25.1 3.5 8.3 1.1 16.7 2 25.2 2.8 8.4.8 16.9 1.5 25.2 2.2 16.7 1.2 33.5 2.2 50.5 3.1z" fill="#dd894a" opacity=".1"/><path d="m80.2 51.5-16 4.9 13.2-11.6c-4.4-8.1-11.7-14.2-20.4-17s-18.2-2.2-26.5 1.8-14.7 11-18 19.6-3.1 18.1.4 26.6 10.2 15.3 18.6 19 17.9 4 26.5.9 15.7-9.5 19.8-17.7c4.3-8.3 5.1-17.8 2.4-26.5z" fill="#dd894a" opacity=".15"/><path d="m161.8 116.9s-10.8 2.3-7.2 12.1c9.8-2.5 7.2-12.1 7.2-12.1zm139.4-115.4s10.8 2.3 7.2 12.1c-9.9-2.5-7.2-12.1-7.2-12.1z" fill="#3aa63c"/><path d="m125.5 111.7h-11.4v17.1h11.4z" fill="#d78359"/><path d="m136.3 95.3c0-.8-.3-1.5-.8-2.1s-1.2-1-2-1.1v-5.4c-.1-4-1.8-7.7-4.6-10.5s-6.6-4.3-10.6-4.3c-3.9 0-7.7 1.5-10.6 4.3-2.8 2.8-4.5 6.5-4.6 10.5v16.5c.1 4 1.8 7.7 4.6 10.5s6.6 4.3 10.6 4.3c3.9 0 7.7-1.5 10.6-4.3 2.8-2.8 4.5-6.5 4.6-10.5v-4.7c.8-.1 1.5-.5 2-1.1s.8-1.4.8-2.1z" fill="#d78359"/><path d="m110.8 90.8c-.3-.3-.6-.5-1-.6s-.8-.2-1.2-.1-.8.1-1.1.3-.7.4-.9.7m12.5-.3c.3-.3.6-.4 1-.6.4-.1.8-.2 1.2-.1.4 0 .8.1 1.1.3s.7.4.9.7" fill="none" stroke="#0e1630" stroke-linecap="round" stroke-linejoin="round" stroke-width="1.11"/><path d="m109 96c.2 0 .4-.1.6-.2s.3-.3.4-.5.1-.4.1-.6-.1-.4-.3-.5c-.1-.1-.3-.2-.5-.3-.2 0-.4 0-.6.1s-.3.2-.5.4-.2.4-.2.6c0 .1 0 .3.1.4s.1.2.2.3.2.2.3.2.2.1.4.1zm10.5 0h.4c.1 0 .3-.1.4-.2s.2-.2.2-.3c.1-.1.1-.3.1-.4s0-.3-.1-.4-.1-.2-.2-.3-.2-.2-.4-.2c-.1 0-.3-.1-.4 0-.2 0-.5.1-.6.3s-.3.4-.3.7c0 .2.1.5.3.7s.3 0 .6.1z" fill="#0e1630"/><path d="m126.1 122.1h-13.7v7.6h13.7z" fill="#fff"/><path d="m114 94.2-2.2 5.2c-.1.4-.1.7 0 1.1s.4.6.8.7c.2.1.3.1.5.1h1.7" fill="none" stroke="#aa5c35" stroke-linecap="round" stroke-linejoin="round" stroke-width=".48"/><path d="m103.5 105.4c.4 6.8 5.6 15 16.2 13.6 3.6-.5 6.9-2.1 9.5-4.6 5.6-5 4.3-14.7 4.3-14.7h-3.5c-1.9 5.5-4.4 6.1-4.4 6.1-3.4-1.9-7.2-3-11-3.1-3.9-.1-7.7.8-11.1 2.7z" fill="#0e1630"/><path clip-rule="evenodd" d="m110.9 106.7c1.4-.4 5.6-.3 6.4.3.8.5-.8 4.1-3.4 4.2-2.5.1-4.5-4.1-3-4.5z" fill="#fff" fill-rule="evenodd"/><path clip-rule="evenodd" d="m112.5 80.3s-2 5.5 10.1 6.2c-2.2-2.3-3.4-5.4-3.3-8.6 0 0 12.3 5.9 10.7 14.3 2 0 4 .7 5.5 2 0 0 4.3-23.9-15.2-25.1-18.3-1.1-18.5 11.6-19.3 16.4 9.9-1.7 11.5-5.2 11.5-5.2z" fill="#0e1630" fill-rule="evenodd"/><path d="m133.1 98.1c1.7 0 3.1-1.4 3.1-3.1s-1.4-3.1-3.1-3.1-3.1 1.4-3.1 3.1 1.4 3.1 3.1 3.1z" fill="#d78359"/><path clip-rule="evenodd" d="m114.8 77.7s5.1 8 17.4 9.4c0-10.4-14.7-14.7-17.4-9.4z" fill="#0e1630" fill-rule="evenodd"/><path clip-rule="evenodd" d="m84.8 162.3c10.6 8.2 40.4-1.9 59.9-5.4 4.3-10.7 5-13-5.7-21.2-25.1 10-38.5 9.5-40.2 8.2s-2.4-11.7-.9-33.3c.2-.4.3-.8.3-1.3.8-5.5-7-9.4-9.8-11.1-2.8-1.8-5.5-6.4-10.7-8.2-1.7 1.2 1.4 8.7 3.5 12.8 1.4 2.6 5.5 3.3 8.3 4.6-9.8 31.4-11.4 49.7-4.7 54.9z" fill="#d78359" fill-rule="evenodd"/><path d="m106.2 136 5.8 35.3 34.9-13.7c3.1-1.2 5.6-3.4 7.2-6.3s2.1-6.2 1.4-9.5c0-.2-.1-.4-.1-.6-.7-3-2.5-5.7-5.1-7.5s-5.7-2.5-8.8-2.1z" fill="#fdde4c"/><path clip-rule="evenodd" d="m229.8 75.6s-9 19.8-5.3 39.1h44.5s-.4-38.9-14.6-44.4c-14.3-5.5-24.6 5.3-24.6 5.3z" fill="#b73e3e" fill-rule="evenodd"/><path d="m251.2 111.7h-11.4v17.1h11.4z" fill="#c1806f"/><path d="m262 95.3c0-.8-.3-1.5-.8-2.1s-1.2-1-2-1.1v-5.4c-.1-4-1.8-7.7-4.6-10.5s-6.6-4.3-10.6-4.3-7.7 1.5-10.6 4.3c-2.8 2.8-4.5 6.5-4.6 10.5v16.5c.1 4 1.8 7.7 4.6 10.5s6.6 4.3 10.6 4.3 7.7-1.5 10.6-4.3c2.8-2.8 4.5-6.5 4.6-10.5v-4.7c.8-.1 1.5-.5 2-1.1s.8-1.4.8-2.1z" fill="#dd9b7f"/><path d="m236.3 89.9c-.4-.1-.8-.1-1.2-.1-.4.1-.8.2-1.1.4s-.6.5-.9.8c-.2.3-.4.7-.5 1.1m12.3-2c.4-.1.8-.2 1.2-.2s.8.1 1.1.3.7.4.9.7c.3.3.5.6.6 1" fill="none" stroke="#0e1630" stroke-linecap="round" stroke-linejoin="round" stroke-width=".48"/><path d="m239.7 94.9-2.2 5.3c-.1.4-.1.7 0 1.1s.4.6.8.7c.2.1.3.1.5.1l1.7.2" fill="none" stroke="#aa5c35" stroke-linecap="round" stroke-linejoin="round" stroke-width=".48"/><path d="m234.6 96c.2 0 .4-.1.6-.2s.3-.3.4-.5.1-.4.1-.6-.1-.4-.3-.5-.3-.2-.5-.3c-.2 0-.4 0-.6.1s-.3.2-.5.4-.2.4-.2.6c0 .1 0 .3.1.4s.1.2.2.3.2.2.3.2.3.1.4.1zm10.6 0c.2 0 .4-.1.6-.2s.3-.3.4-.5.1-.4.1-.6-.1-.4-.3-.5c-.1-.1-.3-.2-.5-.3-.2 0-.4 0-.6.1s-.3.2-.5.4-.2.4-.2.6c0 .3.1.5.3.7s.4.3.7.3z" fill="#0e1630"/><path clip-rule="evenodd" d="m240.9 77.9s7.2 14.1 18.3 14.1c1.9-1.9 2.7-3.7 2.1-11.3s-10.9-14.9-22.6-10.9c-11.2 3.7-11.5 8.6-9.8 21.3 6.9-5.6 10-6.9 12-13.2z" fill="#b73e3e" fill-rule="evenodd"/><path d="m238.4 107.2s3.1 2.5 4.9-1" fill="none" stroke="#aa5c35" stroke-linecap="round" stroke-linejoin="round" stroke-width=".48"/><path clip-rule="evenodd" d="m321.3 128.8c-5.9 12.1-39.5 20.1-58.5 25.7-8.6-7.7-4.6-8.4 1.3-20.5 25.8-9.6 39.4-13.5 40.3-15.4s-7-11.6-17.9-30.3c-.3-.3-.6-.6-.9-1-3.1-4.6 2.1-11.5 3.8-14.3 1.8-2.8 2.1-8.2 5.9-12.1 2.1.3 2.6 8.5 2.6 13 0 2.9-3.5 5.4-5.4 7.8 22.9 23.7 32.5 39.4 28.8 47.1z" fill="#dd9b7f" fill-rule="evenodd"/><path d="m298.1 121.9c1.7-.7 3-2 3.7-3.7s.7-3.6 0-5.3l-11.8-12.1 17.4-9.8 17 25.3c2.9 7.1-.1 20-6.8 24.1l-42.5 26.3c-1.7.9-3.5-2.5-5.3-2.3-1.8.1-3.5-.2-5.1-.8-6.6-2.8-9.7-26.6-6.4-34.4z" fill="#0f5aca"/><path clip-rule="evenodd" d="m271.3 147.2h-18.5v11.2c0 2.4 1 4.8 2.7 6.5s4 2.7 6.5 2.7h.2c2.4 0 4.7-1 6.4-2.8 1.7-1.7 2.7-4.1 2.6-6.5v-11.1z" fill="#0b4c99" fill-rule="evenodd"/><path d="m301.2 89.1-12.9 7.4 2.9 3.6 13.3-7.5z" fill="#fff"/></svg>