<svg width="90" height="90" viewBox="0 0 90 90" fill="none" xmlns="http://www.w3.org/2000/svg">
<g clip-path="url(#clip0)">
<path opacity="0.1" d="M45 90C69.8528 90 90 69.8528 90 45C90 20.1472 69.8528 0 45 0C20.1472 0 0 20.1472 0 45C0 69.8528 20.1472 90 45 90Z" fill="#324A9B"/>
<mask id="mask0" mask-type="alpha" maskUnits="userSpaceOnUse" x="0" y="-11" width="91" height="101">
<path d="M90 45C90 69.853 69.853 90 45 90C20.147 90 0 69.853 0 45C0 20.147 0.915001 7.17198 25.767 7.17198C50.62 7.17198 94.349 -52.37 90 45Z" fill="#0FCA16"/>
</mask>
<g mask="url(#mask0)">
<path d="M86 20H17V95H86V20V20Z" fill="url(#paint0_linear)"/>
<path d="M53.2 40.422H29.924V51.228H53.2V40.422ZM53.2 55.385H29.923V65.36H53.198V55.385H53.2Z" fill="#FAF9FF"/>
<path fill-rule="evenodd" clip-rule="evenodd" d="M13.299 23.898H89.937L88.27 9.66504H14.965L13.299 23.898ZM4.407 42.87C4.407 38.795 7.697 35.492 11.755 35.492C15.814 35.492 19.104 38.795 19.104 42.87C19.104 48.773 23.513 53.235 23.513 57.627C23.513 64.147 18.249 69.432 11.755 69.432C5.262 69.432 0 64.147 0 57.627C0 53.235 4.408 48.773 4.408 42.87H4.407Z" fill="#C0C5D7"/>
<path d="M13.226 69.3191H10.286V89.9791H13.226V69.3191Z" fill="#C0C5D7"/>
<path opacity="0.05" d="M17.455 23.797H85.618V26.291H17.455V23.797Z" fill="black"/>
<path d="M74.182 47.525L67.695 53.728C67.297 54.114 66.692 54.108 66.315 53.724L60.133 47.52C58.343 45.713 58.42 42.791 60.293 40.982C61.967 39.39 64.62 39.387 66.215 40.985L67.298 42.081L68.428 40.981C70.094 39.393 72.755 39.385 74.35 40.983C76.128 42.786 76.055 45.716 74.182 47.525V47.525Z" fill="#C63F2B"/>
</g>
<mask id="mask1" mask-type="alpha" maskUnits="userSpaceOnUse" x="58" y="39" width="18" height="16">
<path d="M74.182 47.525L67.695 53.728C67.297 54.114 66.692 54.108 66.315 53.724L60.133 47.52C58.343 45.713 58.42 42.791 60.293 40.982C61.967 39.39 64.62 39.387 66.215 40.985L67.298 42.081L68.428 40.981C70.094 39.393 72.755 39.385 74.35 40.983C76.128 42.786 76.055 45.716 74.182 47.525V47.525Z" fill="#E43D24"/>
</mask>
<g mask="url(#mask1)">
<path opacity="0.9" d="M63.174 52.06C67.7652 52.06 71.487 48.3381 71.487 43.747C71.487 39.1558 67.7652 35.434 63.174 35.434C58.5829 35.434 54.861 39.1558 54.861 43.747C54.861 48.3381 58.5829 52.06 63.174 52.06Z" fill="#E43D24"/>
</g>
</g>
<defs>
<linearGradient id="paint0_linear" x1="51.5005" y1="20" x2="51.5005" y2="95" gradientUnits="userSpaceOnUse">
<stop stop-color="#C2C2C2"/>
<stop offset="1" stop-color="#EAEAEA"/>
</linearGradient>
<clipPath id="clip0">
<rect width="90" height="90" fill="white"/>
</clipPath>
</defs>
</svg>
