<svg width="90" height="101" viewBox="0 0 90 101" fill="none" xmlns="http://www.w3.org/2000/svg">
<g clip-path="url(#clip0)">
<path opacity="0.1" d="M45 100.285C20.147 100.285 -0.000296235 80.1379 -0.000296235 55.285C-0.000296235 30.432 20.147 10.2847 45 10.2847C69.853 10.2847 90.0003 30.432 90.0003 55.285C90.0003 80.1379 69.853 100.285 45 100.285Z" fill="#324A9B"/>
<mask id="mask0" mask-type="alpha" maskUnits="userSpaceOnUse" x="0" y="-1" width="91" height="102">
<path d="M0 55.806C0 80.659 20.147 100.806 45 100.806C69.853 100.806 90 80.659 90 55.806C90 30.954 97.482 -0.416016 45 -0.416016C0.639999 2.90998 0 30.954 0 55.806Z" fill="url(#paint0_linear)"/>
</mask>
<g mask="url(#mask0)">
<path fill-rule="evenodd" clip-rule="evenodd" d="M65.705 21.453L66.53 24.166L72.024 22.049L71.194 19.421L65.704 21.453H65.705Z" fill="#AB7B6C"/>
<path fill-rule="evenodd" clip-rule="evenodd" d="M70.843 21.1371C73.33 19.0371 73.221 12.5961 73.206 11.6971C73.191 10.7971 73.247 6.49006 72.625 5.41606C72.002 4.34106 70.029 2.47806 68.163 2.51206C66.298 2.54606 66.047 5.64606 65.161 9.97406C64.275 14.3021 63.951 13.4531 62.903 11.6041C61.855 9.75406 60.726 8.16906 59.978 9.21906C59.23 10.2691 61.126 13.7421 61.164 15.9971C61.189 17.5001 62.203 19.1371 64.205 20.9071C66.972 22.4591 69.185 22.5371 70.843 21.1371Z" fill="#AB7B6C"/>
<path d="M46.643 67.369C40.573 67.369 35.653 62.449 35.653 56.379C35.653 50.31 40.573 45.39 46.643 45.39C52.713 45.39 57.633 50.31 57.633 56.38C57.633 62.449 52.713 67.369 46.643 67.369Z" fill="#EAEAEA"/>
<path fill-rule="evenodd" clip-rule="evenodd" d="M37.959 63.176C42.279 60.142 47.579 50.766 52.557 47.291C57.168 54.005 66.143 56.997 70.992 52.846C75.84 48.696 68.855 32.146 65.924 23.109C67.402 22.631 72.057 21.897 72.343 21.897C81.05 37.73 91.49 59.634 78.049 66.544C67.986 71.718 51.795 75.546 37.959 63.176V63.176Z" fill="#FFF7F7"/>
<path d="M39.476 34.401H31.353V45.868H39.476V34.401Z" fill="#AB7B6C"/>
<path fill-rule="evenodd" clip-rule="evenodd" d="M12.84 45.39H35.238L36.775 45.88L37.827 45.39H46.643C52.448 45.39 57.153 50.096 57.153 55.902V106.268C57.153 106.926 56.62 107.46 55.961 107.46H14.935C14.307 107.46 13.787 106.974 13.745 106.348L9.86499 48.572C9.75499 46.929 10.998 45.507 12.641 45.397C12.707 45.392 12.774 45.39 12.841 45.39H12.84Z" fill="url(#paint1_linear)"/>
<path d="M45.687 15.528C45.687 9.85498 41.087 5.25598 35.415 5.25598C29.741 5.25598 25.142 9.85498 25.142 15.528V26.518C25.142 32.191 29.742 36.79 35.415 36.79C41.088 36.79 45.687 32.19 45.687 26.518V15.528Z" fill="#AB7B6C"/>
<path d="M25.142 22.9341C26.197 22.9341 27.052 22.0781 27.052 21.0231C27.052 19.9671 26.197 19.1121 25.142 19.1121C24.086 19.1121 23.23 19.9671 23.23 21.0221C23.23 22.0781 24.086 22.9341 25.142 22.9341V22.9341Z" fill="#AB7B6C"/>
<path fill-rule="evenodd" clip-rule="evenodd" d="M39.476 45.39C39.476 43.083 37.639 41.562 35.338 41.562C33.038 41.562 31.353 43.083 31.353 45.39H39.476Z" fill="#AB7B6C"/>
<path fill-rule="evenodd" clip-rule="evenodd" d="M0.88299 52.4561C5.98799 53.4661 14.151 54.3291 21.036 61.4061C11.286 89.8041 17.934 116.171 24.601 129.511C22.765 130.06 21.021 130.396 19.581 130.661C3.82799 112.687 -5.76501 83.2801 0.88299 52.4571V52.4561Z" fill="#FFF7F7"/>
<path fill-rule="evenodd" clip-rule="evenodd" d="M43.299 4.30005V14.812H30.876C29.293 14.812 28.01 16.095 28.01 17.678V18.515C28.01 18.845 27.743 19.112 27.413 19.112H25.152C24.868 19.112 24.624 18.912 24.568 18.635L23.095 11.422C22.875 10.842 22.754 10.213 22.754 9.55605C22.754 6.65305 25.107 4.30005 28.01 4.30005H43.299V4.30005Z" fill="#5B2D19"/>
<path d="M11.286 67.369C5.21596 67.369 0.295959 62.449 0.295959 56.379C0.295959 50.31 5.21596 45.39 11.286 45.39C17.356 45.39 22.276 50.31 22.276 56.38C22.276 62.449 17.356 67.369 11.286 67.369Z" fill="#FFF7F7"/>
<path d="M41.388 17.2C46.138 17.2 49.988 13.35 49.988 8.6C49.988 3.85 46.138 0 41.388 0C36.638 0 32.788 3.85 32.788 8.6C32.788 13.35 36.638 17.2 41.388 17.2Z" fill="#5B2D19"/>
</g>
</g>
<defs>
<linearGradient id="paint0_linear" x1="88.461" y1="67.472" x2="1.538" y2="44.141" gradientUnits="userSpaceOnUse">
<stop stop-color="#324A9B"/>
<stop offset="1" stop-color="#5379FA"/>
</linearGradient>
<linearGradient id="paint1_linear" x1="33.507" y1="45.39" x2="33.507" y2="107.46" gradientUnits="userSpaceOnUse">
<stop stop-color="#C2C2C2"/>
<stop offset="1" stop-color="#EAEAEA"/>
</linearGradient>
<clipPath id="clip0">
<rect width="90" height="101" fill="white"/>
</clipPath>
</defs>
</svg>
